<svg xmlns="http://www.w3.org/2000/svg" width="1440" height="1024" viewBox="0 0 1440 1024">
  <g fill="#FFFFFF" fill-rule="evenodd" transform="translate(-454 -506)" opacity=".05">
    <rect width="264.284" height="1334.305" x="423.802" y="230.022" transform="rotate(19 555.944 897.175)"/>
    <rect width="264.284" height="1334.305" x="543.8" y="-111.902" transform="rotate(72 675.942 555.25)"/>
    <rect width="264.284" height="1334.305" x="492.824" y="904.01" transform="rotate(154 624.967 1571.163)"/>
    <rect width="264.284" height="1334.305" x="1445.201" y="-58.855" transform="rotate(-77 1577.343 608.297)"/>
    <rect width="264.284" height="1334.305" x="1783.418" y="121.423" transform="rotate(-45 1915.56 788.575)"/>
    <rect width="297.877" height="1503.907" x="1659.031" y="584.293" transform="rotate(34 1807.97 1336.247)"/>
    <rect width="273.7" height="1381.842" x="1671.185" y="477.534" transform="rotate(10 1808.035 1168.455)"/>
    <rect width="377.238" height="1904.581" x="995.178" y="567.419" transform="rotate(80 1183.797 1519.71)"/>
    <rect width="377.238" height="1904.581" x="512.779" y="265.416" transform="rotate(145 701.398 1217.707)"/>
    <rect width="377.238" height="1904.581" x="600.885" y="-38.739" transform="rotate(-149 789.504 913.551)"/>
    <rect width="377.238" height="1904.581" x="995.602" y="-163.788" transform="rotate(-99 1184.22 788.502)"/>
    <rect width="377.238" height="1904.581" x="1391.291" y="38.281" transform="rotate(-48 1579.91 990.572)"/>
    <rect width="487.918" height="2463.374" x="1107.199" y="246.655" transform="rotate(35 1351.158 1478.342)"/>
    <rect width="487.918" height="2463.374" x="1020.268" y="299.029" transform="rotate(115 1264.227 1530.716)"/>
    <rect width="487.918" height="2463.374" x="1157.355" y="104.17" transform="rotate(-177 1401.314 1335.857)"/>
    <rect width="487.918" height="2463.374" x="940.354" y="-42.576" transform="rotate(-58 1184.313 1189.111)"/>
  </g>
</svg>
