<svg xmlns="http://www.w3.org/2000/svg" width="170" height="170" viewBox="0 0 170 170">
  <defs>
    <linearGradient id="a" x1="0%" y1="0%" y2="97.761%">
      <stop stop-color="#9648BF" offset="0%"/>
      <stop stop-color="#7E5CE8" offset="100%"/>
    </linearGradient>
  </defs>
  <g fill="none" fill-rule="evenodd" transform="translate(15 15)">
    <g fill="url(#a)">
      <rect width="140" height="140" opacity=".5" rx="5"/>
      <path d="M8.93617021,9.94088764 C8.93617021,9.38599753 9.38965951,8.93617021 9.93984748,8.93617021 L29.6446518,8.93617021 C30.1989674,8.93617021 30.648329,9.38045016 30.648329,9.94088764 L30.648329,13.1423709 C30.648329,13.697261 30.1948397,14.1470883 29.6446518,14.1470883 L9.93984748,14.1470883 C9.38553183,14.1470883 8.93617021,13.7028084 8.93617021,13.1423709 L8.93617021,9.94088764 Z M8.93617021,86.3676866 C8.93617021,85.8127965 9.38965951,85.3629692 9.93984748,85.3629692 L29.6446518,85.3629692 C30.1989674,85.3629692 30.648329,85.8072492 30.648329,86.3676866 L30.648329,89.5691699 C30.648329,90.12406 30.1948397,90.5738873 29.6446518,90.5738873 L9.93984748,90.5738873 C9.38553183,90.5738873 8.93617021,90.1296074 8.93617021,89.5691699 L8.93617021,86.3676866 Z M18.4895201,19.4942375 C18.4895201,18.9393474 18.9441056,18.4895201 19.4902513,18.4895201 L35.1603303,18.4895201 C35.7130189,18.4895201 36.1610615,18.9338 36.1610615,19.4942375 L36.1610615,22.6957208 C36.1610615,23.2506109 35.706476,23.7004382 35.1603303,23.7004382 L19.4902513,23.7004382 C18.9375627,23.7004382 18.4895201,23.2561583 18.4895201,22.6957208 L18.4895201,19.4942375 Z M18.4895201,29.0475874 C18.4895201,28.4926973 18.9314991,28.04287 19.4943684,28.04287 L48.7501804,28.04287 C49.3051428,28.04287 49.7550288,28.4871499 49.7550288,29.0475874 L49.7550288,32.2490707 C49.7550288,32.8039608 49.3130497,33.2537881 48.7501804,33.2537881 L19.4943684,33.2537881 C18.939406,33.2537881 18.4895201,32.8095081 18.4895201,32.2490707 L18.4895201,29.0475874 Z M18.4895201,48.1542871 C18.4895201,47.599397 18.9314991,47.1495697 19.4943684,47.1495697 L48.7501804,47.1495697 C49.3051428,47.1495697 49.7550288,47.5938497 49.7550288,48.1542871 L49.7550288,51.3557704 C49.7550288,51.9106605 49.3130497,52.3604878 48.7501804,52.3604878 L19.4943684,52.3604878 C18.939406,52.3604878 18.4895201,51.9162079 18.4895201,51.3557704 L18.4895201,48.1542871 Z M18.4895201,76.8143368 C18.4895201,76.2594467 18.9392688,75.8096193 19.4967918,75.8096193 L53.053232,75.8096193 C53.6095328,75.8096193 54.0605037,76.2538993 54.0605037,76.8143368 L54.0605037,80.01582 C54.0605037,80.5707101 53.610755,81.0205375 53.053232,81.0205375 L19.4967918,81.0205375 C18.940491,81.0205375 18.4895201,80.5762575 18.4895201,80.01582 L18.4895201,76.8143368 Z M18.4895201,57.707637 C18.4895201,57.1527469 18.9430094,56.7029196 19.4931974,56.7029196 L39.1980016,56.7029196 C39.7523173,56.7029196 40.2016789,57.1471995 40.2016789,57.707637 L40.2016789,60.9091203 C40.2016789,61.4640104 39.7481896,61.9138377 39.1980016,61.9138377 L19.4931974,61.9138377 C18.9388817,61.9138377 18.4895201,61.4695578 18.4895201,60.9091203 L18.4895201,57.707637 Z M28.04287,67.2609869 C28.04287,66.7060968 28.4960295,66.2562695 29.0404619,66.2562695 L44.6613842,66.2562695 C45.212339,66.2562695 45.6589761,66.7005494 45.6589761,67.2609869 L45.6589761,70.4624702 C45.6589761,71.0173603 45.2058166,71.4671876 44.6613842,71.4671876 L29.0404619,71.4671876 C28.4895071,71.4671876 28.04287,71.0229076 28.04287,70.4624702 L28.04287,67.2609869 Z M49.7735072,67.5935987 C49.7735072,67.0387086 50.2224092,66.5888813 50.7667812,66.5888813 L57.5882863,66.5888813 C58.1368564,66.5888813 58.5815603,67.0331612 58.5815603,67.5935987 L58.5815603,70.795082 C58.5815603,71.3499721 58.1326583,71.7997994 57.5882863,71.7997994 L50.7667812,71.7997994 C50.2182111,71.7997994 49.7735072,71.3555194 49.7735072,70.795082 L49.7735072,67.5935987 Z M8.93617021,38.6009373 C8.93617021,38.0460472 9.37814927,37.5962198 9.94101856,37.5962198 L39.1968306,37.5962198 C39.751793,37.5962198 40.2016789,38.0404998 40.2016789,38.6009373 L40.2016789,41.8024205 C40.2016789,42.3573106 39.7596998,42.807138 39.1968306,42.807138 L9.94101856,42.807138 C9.38605614,42.807138 8.93617021,42.362858 8.93617021,41.8024205 L8.93617021,38.6009373 Z M40.164722,19.5496728 C40.164722,18.9947827 40.6113213,18.5449554 41.1640724,18.5449554 L53.0611533,18.5449554 C53.6130793,18.5449554 54.0605037,18.9892353 54.0605037,19.5496728 L54.0605037,22.7511561 C54.0605037,23.3060462 53.6139044,23.7558735 53.0611533,23.7558735 L41.1640724,23.7558735 C40.6121464,23.7558735 40.164722,23.3115936 40.164722,22.7511561 L40.164722,19.5496728 Z" opacity=".7"/>
    </g>
    <g transform="translate(68.51)">
      <path fill="url(#a)" d="M3.55271368e-15,1.42108547e-14 L66.4860684,1.42108547e-14 C69.249311,1.42108547e-14 71.4893617,2.24153039 71.4893617,5.00329329 L71.4893617,134.996707 C71.4893617,137.759949 69.2478313,140 66.4860684,140 L3.55271368e-15,140 L0,1.39888101e-14 Z"/>
      <path fill="#FFFFFF" d="M50.5914941,71.9871869 L36.2169083,86.3829787 L21.8423224,71.9871869 C17.8728902,68.0118988 17.8728902,61.5666833 21.8423224,57.5913952 C25.8117547,53.616107 32.247476,53.616107 36.2169083,57.5913952 C40.1863406,53.616107 46.6220619,53.616107 50.5914941,57.5913952 C54.5609264,61.5666833 54.5609264,68.0118988 50.5914941,71.9871869 L50.5914941,71.9871869 L50.5914941,71.9871869 Z"/>
    </g>
  </g>
</svg>
