<svg xmlns="http://www.w3.org/2000/svg" width="170" height="170" viewBox="0 0 170 170">
  <defs>
    <radialGradient id="a" fx="50%" fy="50%">
      <stop stop-color="#7E5CE8" offset="0%"/>
      <stop stop-color="#7E5CE8" stop-opacity="0" offset="100%"/>
    </radialGradient>
    <linearGradient id="b" x1="0%" y1="0%" y2="97.761%">
      <stop stop-color="#9648BF" offset="0%"/>
      <stop stop-color="#7E5CE8" offset="100%"/>
    </linearGradient>
  </defs>
  <g fill="none" fill-rule="evenodd" transform="translate(14 13)">
    <path fill="url(#a)" d="M0,2.5 C0,1.11928813 1.11544703,0 2.49374002,0 L44.50626,0 C45.8835146,0 47,1.10966206 47,2.5 C47,3.88071187 45.884553,5 44.50626,5 L2.49374002,5 C1.11648544,5 0,3.89033794 0,2.5 Z M52,2.5 C52,1.11928813 53.1253794,0 54.5005016,0 L73.4994984,0 C74.8804873,0 76,1.10966206 76,2.5 C76,3.88071187 74.8746206,5 73.4994984,5 L54.5005016,5 C53.1195127,5 52,3.89033794 52,2.5 Z M81,2.5 C81,1.11928813 82.1201337,0 83.4976575,0 L110.502342,0 C111.881761,0 113,1.10966206 113,2.5 C113,3.88071187 111.879866,5 110.502342,5 L83.4976575,5 C82.1182394,5 81,3.89033794 81,2.5 Z M118,2.5 C118,1.11928813 119.125379,0 120.500502,0 L139.499498,0 C140.880487,0 142,1.10966206 142,2.5 C142,3.88071187 140.874621,5 139.499498,5 L120.500502,5 C119.119513,5 118,3.89033794 118,2.5 Z M0,12.5 C0,11.1192881 1.12753916,10 2.49958117,10 L34.5004188,10 C35.8808994,10 37,11.1096621 37,12.5 C37,13.8807119 35.8724608,15 34.5004188,15 L2.49958117,15 C1.11910061,15 0,13.8903379 0,12.5 Z M42,12.5 C42,11.1192881 43.1212289,10 44.5022606,10 L61.4977394,10 C62.8796998,10 64,11.1096621 64,12.5 C64,13.8807119 62.8787711,15 61.4977394,15 L44.5022606,15 C43.1203002,15 42,13.8903379 42,12.5 Z M68,12.5 C68,11.1192881 69.1275392,10 70.4995812,10 L102.500419,10 C103.880899,10 105,11.1096621 105,12.5 C105,13.8807119 103.872461,15 102.500419,15 L70.4995812,15 C69.1191006,15 68,13.8903379 68,12.5 Z M110,12.5 C110,11.1192881 111.120134,10 112.497658,10 L139.502342,10 C140.881761,10 142,11.1096621 142,12.5 C142,13.8807119 140.879866,15 139.502342,15 L112.497658,15 C111.118239,15 110,13.8903379 110,12.5 Z M0,22.5 C0,21.1192881 1.11544703,20 2.49374002,20 L44.50626,20 C45.8835146,20 47,21.1096621 47,22.5 C47,23.8807119 45.884553,25 44.50626,25 L2.49374002,25 C1.11648544,25 0,23.8903379 0,22.5 Z M52,22.5 C52,21.1192881 53.1253794,20 54.5005016,20 L73.4994984,20 C74.8804873,20 76,21.1096621 76,22.5 C76,23.8807119 74.8746206,25 73.4994984,25 L54.5005016,25 C53.1195127,25 52,23.8903379 52,22.5 Z M81,22.5 C81,21.1192881 82.1201337,20 83.4976575,20 L110.502342,20 C111.881761,20 113,21.1096621 113,22.5 C113,23.8807119 111.879866,25 110.502342,25 L83.4976575,25 C82.1182394,25 81,23.8903379 81,22.5 Z M118,22.5 C118,21.1192881 119.125379,20 120.500502,20 L139.499498,20 C140.880487,20 142,21.1096621 142,22.5 C142,23.8807119 140.874621,25 139.499498,25 L120.500502,25 C119.119513,25 118,23.8903379 118,22.5 Z M0,32.5 C0,31.1192881 1.12753916,30 2.49958117,30 L34.5004188,30 C35.8808994,30 37,31.1096621 37,32.5 C37,33.8807119 35.8724608,35 34.5004188,35 L2.49958117,35 C1.11910061,35 0,33.8903379 0,32.5 Z M42,32.5 C42,31.1192881 43.1212289,30 44.5022606,30 L61.4977394,30 C62.8796998,30 64,31.1096621 64,32.5 C64,33.8807119 62.8787711,35 61.4977394,35 L44.5022606,35 C43.1203002,35 42,33.8903379 42,32.5 Z M68,32.5 C68,31.1192881 69.1275392,30 70.4995812,30 L102.500419,30 C103.880899,30 105,31.1096621 105,32.5 C105,33.8807119 103.872461,35 102.500419,35 L70.4995812,35 C69.1191006,35 68,33.8903379 68,32.5 Z M110,32.5 C110,31.1192881 111.120134,30 112.497658,30 L139.502342,30 C140.881761,30 142,31.1096621 142,32.5 C142,33.8807119 140.879866,35 139.502342,35 L112.497658,35 C111.118239,35 110,33.8903379 110,32.5 Z M0,42.5 C0,41.1192881 1.11544703,40 2.49374002,40 L44.50626,40 C45.8835146,40 47,41.1096621 47,42.5 C47,43.8807119 45.884553,45 44.50626,45 L2.49374002,45 C1.11648544,45 0,43.8903379 0,42.5 Z M52,42.5 C52,41.1192881 53.1253794,40 54.5005016,40 L73.4994984,40 C74.8804873,40 76,41.1096621 76,42.5 C76,43.8807119 74.8746206,45 73.4994984,45 L54.5005016,45 C53.1195127,45 52,43.8903379 52,42.5 Z M81,42.5 C81,41.1192881 82.1201337,40 83.4976575,40 L110.502342,40 C111.881761,40 113,41.1096621 113,42.5 C113,43.8807119 111.879866,45 110.502342,45 L83.4976575,45 C82.1182394,45 81,43.8903379 81,42.5 Z M118,42.5 C118,41.1192881 119.125379,40 120.500502,40 L139.499498,40 C140.880487,40 142,41.1096621 142,42.5 C142,43.8807119 140.874621,45 139.499498,45 L120.500502,45 C119.119513,45 118,43.8903379 118,42.5 Z M0,52.5 C0,51.1192881 1.12753916,50 2.49958117,50 L34.5004188,50 C35.8808994,50 37,51.1096621 37,52.5 C37,53.8807119 35.8724608,55 34.5004188,55 L2.49958117,55 C1.11910061,55 0,53.8903379 0,52.5 Z M42,52.5 C42,51.1192881 43.1212289,50 44.5022606,50 L61.4977394,50 C62.8796998,50 64,51.1096621 64,52.5 C64,53.8807119 62.8787711,55 61.4977394,55 L44.5022606,55 C43.1203002,55 42,53.8903379 42,52.5 Z M68,52.5 C68,51.1192881 69.1275392,50 70.4995812,50 L102.500419,50 C103.880899,50 105,51.1096621 105,52.5 C105,53.8807119 103.872461,55 102.500419,55 L70.4995812,55 C69.1191006,55 68,53.8903379 68,52.5 Z M110,52.5 C110,51.1192881 111.120134,50 112.497658,50 L139.502342,50 C140.881761,50 142,51.1096621 142,52.5 C142,53.8807119 140.879866,55 139.502342,55 L112.497658,55 C111.118239,55 110,53.8903379 110,52.5 Z M0,62.5 C0,61.1192881 1.11544703,60 2.49374002,60 L44.50626,60 C45.8835146,60 47,61.1096621 47,62.5 C47,63.8807119 45.884553,65 44.50626,65 L2.49374002,65 C1.11648544,65 0,63.8903379 0,62.5 Z M52,62.5 C52,61.1192881 53.1253794,60 54.5005016,60 L73.4994984,60 C74.8804873,60 76,61.1096621 76,62.5 C76,63.8807119 74.8746206,65 73.4994984,65 L54.5005016,65 C53.1195127,65 52,63.8903379 52,62.5 Z M81,62.5 C81,61.1192881 82.1201337,60 83.4976575,60 L110.502342,60 C111.881761,60 113,61.1096621 113,62.5 C113,63.8807119 111.879866,65 110.502342,65 L83.4976575,65 C82.1182394,65 81,63.8903379 81,62.5 Z M118,62.5 C118,61.1192881 119.125379,60 120.500502,60 L139.499498,60 C140.880487,60 142,61.1096621 142,62.5 C142,63.8807119 140.874621,65 139.499498,65 L120.500502,65 C119.119513,65 118,63.8903379 118,62.5 Z M0,72.5 C0,71.1192881 1.12753916,70 2.49958117,70 L34.5004188,70 C35.8808994,70 37,71.1096621 37,72.5 C37,73.8807119 35.8724608,75 34.5004188,75 L2.49958117,75 C1.11910061,75 0,73.8903379 0,72.5 Z M42,72.5 C42,71.1192881 43.1212289,70 44.5022606,70 L61.4977394,70 C62.8796998,70 64,71.1096621 64,72.5 C64,73.8807119 62.8787711,75 61.4977394,75 L44.5022606,75 C43.1203002,75 42,73.8903379 42,72.5 Z M68,72.5 C68,71.1192881 69.1275392,70 70.4995812,70 L102.500419,70 C103.880899,70 105,71.1096621 105,72.5 C105,73.8807119 103.872461,75 102.500419,75 L70.4995812,75 C69.1191006,75 68,73.8903379 68,72.5 Z M110,72.5 C110,71.1192881 111.120134,70 112.497658,70 L139.502342,70 C140.881761,70 142,71.1096621 142,72.5 C142,73.8807119 140.879866,75 139.502342,75 L112.497658,75 C111.118239,75 110,73.8903379 110,72.5 Z M0,82.5 C0,81.1192881 1.11544703,80 2.49374002,80 L44.50626,80 C45.8835146,80 47,81.1096621 47,82.5 C47,83.8807119 45.884553,85 44.50626,85 L2.49374002,85 C1.11648544,85 0,83.8903379 0,82.5 Z M52,82.5 C52,81.1192881 53.1253794,80 54.5005016,80 L73.4994984,80 C74.8804873,80 76,81.1096621 76,82.5 C76,83.8807119 74.8746206,85 73.4994984,85 L54.5005016,85 C53.1195127,85 52,83.8903379 52,82.5 Z M81,82.5 C81,81.1192881 82.1201337,80 83.4976575,80 L110.502342,80 C111.881761,80 113,81.1096621 113,82.5 C113,83.8807119 111.879866,85 110.502342,85 L83.4976575,85 C82.1182394,85 81,83.8903379 81,82.5 Z M118,82.5 C118,81.1192881 119.125379,80 120.500502,80 L139.499498,80 C140.880487,80 142,81.1096621 142,82.5 C142,83.8807119 140.874621,85 139.499498,85 L120.500502,85 C119.119513,85 118,83.8903379 118,82.5 Z M0,92.5 C0,91.1192881 1.12753916,90 2.49958117,90 L34.5004188,90 C35.8808994,90 37,91.1096621 37,92.5 C37,93.8807119 35.8724608,95 34.5004188,95 L2.49958117,95 C1.11910061,95 0,93.8903379 0,92.5 Z M42,92.5 C42,91.1192881 43.1212289,90 44.5022606,90 L61.4977394,90 C62.8796998,90 64,91.1096621 64,92.5 C64,93.8807119 62.8787711,95 61.4977394,95 L44.5022606,95 C43.1203002,95 42,93.8903379 42,92.5 Z M68,92.5 C68,91.1192881 69.1275392,90 70.4995812,90 L102.500419,90 C103.880899,90 105,91.1096621 105,92.5 C105,93.8807119 103.872461,95 102.500419,95 L70.4995812,95 C69.1191006,95 68,93.8903379 68,92.5 Z M110,92.5 C110,91.1192881 111.120134,90 112.497658,90 L139.502342,90 C140.881761,90 142,91.1096621 142,92.5 C142,93.8807119 140.879866,95 139.502342,95 L112.497658,95 C111.118239,95 110,93.8903379 110,92.5 Z M0,102.5 C0,101.119288 1.11544703,100 2.49374002,100 L44.50626,100 C45.8835146,100 47,101.109662 47,102.5 C47,103.880712 45.884553,105 44.50626,105 L2.49374002,105 C1.11648544,105 0,103.890338 0,102.5 Z M52,102.5 C52,101.119288 53.1253794,100 54.5005016,100 L73.4994984,100 C74.8804873,100 76,101.109662 76,102.5 C76,103.880712 74.8746206,105 73.4994984,105 L54.5005016,105 C53.1195127,105 52,103.890338 52,102.5 Z M81,102.5 C81,101.119288 82.1201337,100 83.4976575,100 L110.502342,100 C111.881761,100 113,101.109662 113,102.5 C113,103.880712 111.879866,105 110.502342,105 L83.4976575,105 C82.1182394,105 81,103.890338 81,102.5 Z M118,102.5 C118,101.119288 119.125379,100 120.500502,100 L139.499498,100 C140.880487,100 142,101.109662 142,102.5 C142,103.880712 140.874621,105 139.499498,105 L120.500502,105 C119.119513,105 118,103.890338 118,102.5 Z M0,112.5 C0,111.119288 1.12753916,110 2.49958117,110 L34.5004188,110 C35.8808994,110 37,111.109662 37,112.5 C37,113.880712 35.8724608,115 34.5004188,115 L2.49958117,115 C1.11910061,115 0,113.890338 0,112.5 Z M42,112.5 C42,111.119288 43.1212289,110 44.5022606,110 L61.4977394,110 C62.8796998,110 64,111.109662 64,112.5 C64,113.880712 62.8787711,115 61.4977394,115 L44.5022606,115 C43.1203002,115 42,113.890338 42,112.5 Z M68,112.5 C68,111.119288 69.1275392,110 70.4995812,110 L102.500419,110 C103.880899,110 105,111.109662 105,112.5 C105,113.880712 103.872461,115 102.500419,115 L70.4995812,115 C69.1191006,115 68,113.890338 68,112.5 Z M110,112.5 C110,111.119288 111.120134,110 112.497658,110 L139.502342,110 C140.881761,110 142,111.109662 142,112.5 C142,113.880712 140.879866,115 139.502342,115 L112.497658,115 C111.118239,115 110,113.890338 110,112.5 Z M0,122.5 C0,121.119288 1.11544703,120 2.49374002,120 L44.50626,120 C45.8835146,120 47,121.109662 47,122.5 C47,123.880712 45.884553,125 44.50626,125 L2.49374002,125 C1.11648544,125 0,123.890338 0,122.5 Z M52,122.5 C52,121.119288 53.1253794,120 54.5005016,120 L73.4994984,120 C74.8804873,120 76,121.109662 76,122.5 C76,123.880712 74.8746206,125 73.4994984,125 L54.5005016,125 C53.1195127,125 52,123.890338 52,122.5 Z M81,122.5 C81,121.119288 82.1201337,120 83.4976575,120 L110.502342,120 C111.881761,120 113,121.109662 113,122.5 C113,123.880712 111.879866,125 110.502342,125 L83.4976575,125 C82.1182394,125 81,123.890338 81,122.5 Z M118,122.5 C118,121.119288 119.125379,120 120.500502,120 L139.499498,120 C140.880487,120 142,121.109662 142,122.5 C142,123.880712 140.874621,125 139.499498,125 L120.500502,125 C119.119513,125 118,123.890338 118,122.5 Z M0,132.5 C0,131.119288 1.12753916,130 2.49958117,130 L34.5004188,130 C35.8808994,130 37,131.109662 37,132.5 C37,133.880712 35.8724608,135 34.5004188,135 L2.49958117,135 C1.11910061,135 0,133.890338 0,132.5 Z M42,132.5 C42,131.119288 43.1212289,130 44.5022606,130 L61.4977394,130 C62.8796998,130 64,131.109662 64,132.5 C64,133.880712 62.8787711,135 61.4977394,135 L44.5022606,135 C43.1203002,135 42,133.890338 42,132.5 Z M68,132.5 C68,131.119288 69.1275392,130 70.4995812,130 L102.500419,130 C103.880899,130 105,131.109662 105,132.5 C105,133.880712 103.872461,135 102.500419,135 L70.4995812,135 C69.1191006,135 68,133.890338 68,132.5 Z M110,132.5 C110,131.119288 111.120134,130 112.497658,130 L139.502342,130 C140.881761,130 142,131.109662 142,132.5 C142,133.880712 140.879866,135 139.502342,135 L112.497658,135 C111.118239,135 110,133.890338 110,132.5 Z M0,142.5 C0,141.119288 1.11544703,140 2.49374002,140 L44.50626,140 C45.8835146,140 47,141.109662 47,142.5 C47,143.880712 45.884553,145 44.50626,145 L2.49374002,145 C1.11648544,145 0,143.890338 0,142.5 Z M52,142.5 C52,141.119288 53.1253794,140 54.5005016,140 L73.4994984,140 C74.8804873,140 76,141.109662 76,142.5 C76,143.880712 74.8746206,145 73.4994984,145 L54.5005016,145 C53.1195127,145 52,143.890338 52,142.5 Z M81,142.5 C81,141.119288 82.1201337,140 83.4976575,140 L110.502342,140 C111.881761,140 113,141.109662 113,142.5 C113,143.880712 111.879866,145 110.502342,145 L83.4976575,145 C82.1182394,145 81,143.890338 81,142.5 Z M118,142.5 C118,141.119288 119.125379,140 120.500502,140 L139.499498,140 C140.880487,140 142,141.109662 142,142.5 C142,143.880712 140.874621,145 139.499498,145 L120.500502,145 C119.119513,145 118,143.890338 118,142.5 Z" opacity=".2"/>
    <path fill="url(#b)" d="M21,71.4849624 L43.8383459,59.5300752 L43.8383459,65.5921053 C43.8383459,66.0244383 43.725565,66.4238703 43.5,66.7904135 C43.274435,67.1569567 42.9172957,67.4718032 42.4285714,67.7349624 L34.4210526,72.0488722 C33.9323284,72.3120314 33.4154163,72.5328938 32.8703008,72.7114662 C32.3251852,72.8900385 31.7518827,73.0545105 31.1503759,73.2048872 C31.7518827,73.3552639 32.3251852,73.5103375 32.8703008,73.6701128 C33.4154163,73.829888 33.9323284,74.0413521 34.4210526,74.3045113 L42.4285714,78.6466165 C42.9172957,78.9097758 43.274435,79.219923 43.5,79.5770677 C43.725565,79.9342123 43.8383459,80.3289452 43.8383459,80.7612782 L43.8383459,86.8233083 L21,74.8966165 L21,71.4849624 Z M74.176692,91.8703008 C73.969924,92.3778221 73.7020695,92.8289454 73.3731205,93.2236842 C73.0441715,93.618423 72.6776338,93.9473671 72.2734965,94.2105263 C71.8693591,94.4736855 71.4370326,94.671052 70.976504,94.8026316 C70.5159754,94.9342112 70.0601529,95 69.6090228,95 L65.8872183,95 L81.9022559,52.9605263 C82.2781976,52.0018749 82.8515001,51.2687995 83.6221807,50.7612782 C84.3928612,50.2537569 85.2857094,50 86.3007521,50 L90.0225566,50 L74.176692,91.8703008 Z M120.981203,74.8966165 L98.1428575,86.8233083 L98.1428575,80.7612782 C98.1428575,80.3289452 98.2556383,79.9342123 98.4812033,79.5770677 C98.7067684,79.219923 99.0639077,78.9097758 99.5526319,78.6466165 L107.560151,74.3045113 C108.030078,74.0413521 108.542291,73.829888 109.096805,73.6701128 C109.651319,73.5103375 110.229321,73.3552639 110.830827,73.2048872 C110.229321,73.0545105 109.651319,72.8900385 109.096805,72.7114662 C108.542291,72.5328938 108.030078,72.3120314 107.560151,72.0488722 L99.5526319,67.7349624 C99.0639077,67.4718032 98.7067684,67.1569567 98.4812033,66.7904135 C98.2556383,66.4238703 98.1428575,66.0244383 98.1428575,65.5921053 L98.1428575,59.5300752 L120.981203,71.4849624 L120.981203,74.8966165 Z"/>
  </g>
</svg>
