<svg xmlns="http://www.w3.org/2000/svg" width="170" height="170" viewBox="0 0 170 170">
  <defs>
    <radialGradient id="a" fx="50%" fy="50%">
      <stop stop-color="#7E5CE8" offset="0%"/>
      <stop stop-color="#7E5CE8" stop-opacity="0" offset="100%"/>
    </radialGradient>
    <linearGradient id="b" x1="0%" y1="0%" y2="97.761%">
      <stop stop-color="#9648BF" offset="0%"/>
      <stop stop-color="#7E5CE8" offset="100%"/>
    </linearGradient>
  </defs>
  <g fill="none" fill-rule="evenodd" transform="translate(2)">
    <path fill="url(#a)" d="M0,2.94827586 C0,1.31998807 1.31182855,0 2.95226349,0 L52.3223844,0 C53.9528745,0 55.2746479,1.3233013 55.2746479,2.94827586 C55.2746479,4.57656366 53.9628193,5.89655172 52.3223844,5.89655172 L2.95226349,5.89655172 C1.32177339,5.89655172 0,4.57325042 0,2.94827586 Z M61.1549296,2.94827586 C61.1549296,1.31998807 62.4784392,0 64.0956604,0 L86.4395509,0 C88.0636717,0 89.3802817,1.3233013 89.3802817,2.94827586 C89.3802817,4.57656366 88.0567721,5.89655172 86.4395509,5.89655172 L64.0956604,5.89655172 C62.4715396,5.89655172 61.1549296,4.57325042 61.1549296,2.94827586 Z M95.2605634,2.94827586 C95.2605634,1.31998807 96.5779037,0 98.2136248,0 L129.941305,0 C131.572236,0 132.894366,1.3233013 132.894366,2.94827586 C132.894366,4.57656366 131.577026,5.89655172 129.941305,5.89655172 L98.2136248,5.89655172 C96.582694,5.89655172 95.2605634,4.57325042 95.2605634,2.94827586 Z M138.774648,2.94827586 C138.774648,1.31998807 140.098158,0 141.715379,0 L164.059269,0 C165.68339,0 167,1.3233013 167,2.94827586 C167,4.57656366 165.67649,5.89655172 164.059269,5.89655172 L141.715379,5.89655172 C140.091258,5.89655172 138.774648,4.57325042 138.774648,2.94827586 Z M0,14.7413793 C0,13.1130915 1.32604958,11.7931034 2.95668952,11.7931034 L40.557395,11.7931034 C42.1903295,11.7931034 43.5140845,13.1164048 43.5140845,14.7413793 C43.5140845,16.3696671 42.1880349,17.6896552 40.557395,17.6896552 L2.95668952,17.6896552 C1.32375499,17.6896552 0,16.3663539 0,14.7413793 Z M49.3943662,14.7413793 C49.3943662,13.1130915 50.7129946,11.7931034 52.3371657,11.7931034 L72.3248062,11.7931034 C73.9500694,11.7931034 75.2676056,13.1164048 75.2676056,14.7413793 C75.2676056,16.3696671 73.9489772,17.6896552 72.3248062,17.6896552 L52.3371657,17.6896552 C50.7119024,17.6896552 49.3943662,16.3663539 49.3943662,14.7413793 Z M79.971831,14.7413793 C79.971831,13.1130915 81.2978806,11.7931034 82.9285205,11.7931034 L120.529226,11.7931034 C122.162161,11.7931034 123.485915,13.1164048 123.485915,14.7413793 C123.485915,16.3696671 122.159866,17.6896552 120.529226,17.6896552 L82.9285205,17.6896552 C81.295586,17.6896552 79.971831,16.3663539 79.971831,14.7413793 Z M129.366197,14.7413793 C129.366197,13.1130915 130.683538,11.7931034 132.319259,11.7931034 L164.046939,11.7931034 C165.677869,11.7931034 167,13.1164048 167,14.7413793 C167,16.3696671 165.68266,17.6896552 164.046939,17.6896552 L132.319259,17.6896552 C130.688328,17.6896552 129.366197,16.3663539 129.366197,14.7413793 Z M0,26.5344828 C0,24.906195 1.31182855,23.5862069 2.95226349,23.5862069 L52.3223844,23.5862069 C53.9528745,23.5862069 55.2746479,24.9095082 55.2746479,26.5344828 C55.2746479,28.1627706 53.9628193,29.4827586 52.3223844,29.4827586 L2.95226349,29.4827586 C1.32177339,29.4827586 0,28.1594573 0,26.5344828 Z M61.1549296,26.5344828 C61.1549296,24.906195 62.4784392,23.5862069 64.0956604,23.5862069 L86.4395509,23.5862069 C88.0636717,23.5862069 89.3802817,24.9095082 89.3802817,26.5344828 C89.3802817,28.1627706 88.0567721,29.4827586 86.4395509,29.4827586 L64.0956604,29.4827586 C62.4715396,29.4827586 61.1549296,28.1594573 61.1549296,26.5344828 Z M95.2605634,26.5344828 C95.2605634,24.906195 96.5779037,23.5862069 98.2136248,23.5862069 L129.941305,23.5862069 C131.572236,23.5862069 132.894366,24.9095082 132.894366,26.5344828 C132.894366,28.1627706 131.577026,29.4827586 129.941305,29.4827586 L98.2136248,29.4827586 C96.582694,29.4827586 95.2605634,28.1594573 95.2605634,26.5344828 Z M138.774648,26.5344828 C138.774648,24.906195 140.098158,23.5862069 141.715379,23.5862069 L164.059269,23.5862069 C165.68339,23.5862069 167,24.9095082 167,26.5344828 C167,28.1627706 165.67649,29.4827586 164.059269,29.4827586 L141.715379,29.4827586 C140.091258,29.4827586 138.774648,28.1594573 138.774648,26.5344828 Z M0,38.3275862 C0,36.6992984 1.32604958,35.3793103 2.95668952,35.3793103 L40.557395,35.3793103 C42.1903295,35.3793103 43.5140845,36.7026116 43.5140845,38.3275862 C43.5140845,39.955874 42.1880349,41.2758621 40.557395,41.2758621 L2.95668952,41.2758621 C1.32375499,41.2758621 0,39.9525608 0,38.3275862 Z M49.3943662,38.3275862 C49.3943662,36.6992984 50.7129946,35.3793103 52.3371657,35.3793103 L72.3248062,35.3793103 C73.9500694,35.3793103 75.2676056,36.7026116 75.2676056,38.3275862 C75.2676056,39.955874 73.9489772,41.2758621 72.3248062,41.2758621 L52.3371657,41.2758621 C50.7119024,41.2758621 49.3943662,39.9525608 49.3943662,38.3275862 Z M79.971831,38.3275862 C79.971831,36.6992984 81.2978806,35.3793103 82.9285205,35.3793103 L120.529226,35.3793103 C122.162161,35.3793103 123.485915,36.7026116 123.485915,38.3275862 C123.485915,39.955874 122.159866,41.2758621 120.529226,41.2758621 L82.9285205,41.2758621 C81.295586,41.2758621 79.971831,39.9525608 79.971831,38.3275862 Z M129.366197,38.3275862 C129.366197,36.6992984 130.683538,35.3793103 132.319259,35.3793103 L164.046939,35.3793103 C165.677869,35.3793103 167,36.7026116 167,38.3275862 C167,39.955874 165.68266,41.2758621 164.046939,41.2758621 L132.319259,41.2758621 C130.688328,41.2758621 129.366197,39.9525608 129.366197,38.3275862 Z M0,50.1206897 C0,48.4924019 1.31182855,47.1724138 2.95226349,47.1724138 L52.3223844,47.1724138 C53.9528745,47.1724138 55.2746479,48.4957151 55.2746479,50.1206897 C55.2746479,51.7489775 53.9628193,53.0689655 52.3223844,53.0689655 L2.95226349,53.0689655 C1.32177339,53.0689655 0,51.7456642 0,50.1206897 Z M61.1549296,50.1206897 C61.1549296,48.4924019 62.4784392,47.1724138 64.0956604,47.1724138 L86.4395509,47.1724138 C88.0636717,47.1724138 89.3802817,48.4957151 89.3802817,50.1206897 C89.3802817,51.7489775 88.0567721,53.0689655 86.4395509,53.0689655 L64.0956604,53.0689655 C62.4715396,53.0689655 61.1549296,51.7456642 61.1549296,50.1206897 Z M95.2605634,50.1206897 C95.2605634,48.4924019 96.5779037,47.1724138 98.2136248,47.1724138 L129.941305,47.1724138 C131.572236,47.1724138 132.894366,48.4957151 132.894366,50.1206897 C132.894366,51.7489775 131.577026,53.0689655 129.941305,53.0689655 L98.2136248,53.0689655 C96.582694,53.0689655 95.2605634,51.7456642 95.2605634,50.1206897 Z M138.774648,50.1206897 C138.774648,48.4924019 140.098158,47.1724138 141.715379,47.1724138 L164.059269,47.1724138 C165.68339,47.1724138 167,48.4957151 167,50.1206897 C167,51.7489775 165.67649,53.0689655 164.059269,53.0689655 L141.715379,53.0689655 C140.091258,53.0689655 138.774648,51.7456642 138.774648,50.1206897 Z M0,61.9137931 C0,60.2855053 1.32604958,58.9655172 2.95668952,58.9655172 L40.557395,58.9655172 C42.1903295,58.9655172 43.5140845,60.2888185 43.5140845,61.9137931 C43.5140845,63.5420809 42.1880349,64.862069 40.557395,64.862069 L2.95668952,64.862069 C1.32375499,64.862069 0,63.5387677 0,61.9137931 Z M49.3943662,61.9137931 C49.3943662,60.2855053 50.7129946,58.9655172 52.3371657,58.9655172 L72.3248062,58.9655172 C73.9500694,58.9655172 75.2676056,60.2888185 75.2676056,61.9137931 C75.2676056,63.5420809 73.9489772,64.862069 72.3248062,64.862069 L52.3371657,64.862069 C50.7119024,64.862069 49.3943662,63.5387677 49.3943662,61.9137931 Z M79.971831,61.9137931 C79.971831,60.2855053 81.2978806,58.9655172 82.9285205,58.9655172 L120.529226,58.9655172 C122.162161,58.9655172 123.485915,60.2888185 123.485915,61.9137931 C123.485915,63.5420809 122.159866,64.862069 120.529226,64.862069 L82.9285205,64.862069 C81.295586,64.862069 79.971831,63.5387677 79.971831,61.9137931 Z M129.366197,61.9137931 C129.366197,60.2855053 130.683538,58.9655172 132.319259,58.9655172 L164.046939,58.9655172 C165.677869,58.9655172 167,60.2888185 167,61.9137931 C167,63.5420809 165.68266,64.862069 164.046939,64.862069 L132.319259,64.862069 C130.688328,64.862069 129.366197,63.5387677 129.366197,61.9137931 Z M0,73.7068966 C0,72.0786088 1.31182855,70.7586207 2.95226349,70.7586207 L52.3223844,70.7586207 C53.9528745,70.7586207 55.2746479,72.081922 55.2746479,73.7068966 C55.2746479,75.3351843 53.9628193,76.6551724 52.3223844,76.6551724 L2.95226349,76.6551724 C1.32177339,76.6551724 0,75.3318711 0,73.7068966 Z M61.1549296,73.7068966 C61.1549296,72.0786088 62.4784392,70.7586207 64.0956604,70.7586207 L86.4395509,70.7586207 C88.0636717,70.7586207 89.3802817,72.081922 89.3802817,73.7068966 C89.3802817,75.3351843 88.0567721,76.6551724 86.4395509,76.6551724 L64.0956604,76.6551724 C62.4715396,76.6551724 61.1549296,75.3318711 61.1549296,73.7068966 Z M95.2605634,73.7068966 C95.2605634,72.0786088 96.5779037,70.7586207 98.2136248,70.7586207 L129.941305,70.7586207 C131.572236,70.7586207 132.894366,72.081922 132.894366,73.7068966 C132.894366,75.3351843 131.577026,76.6551724 129.941305,76.6551724 L98.2136248,76.6551724 C96.582694,76.6551724 95.2605634,75.3318711 95.2605634,73.7068966 Z M138.774648,73.7068966 C138.774648,72.0786088 140.098158,70.7586207 141.715379,70.7586207 L164.059269,70.7586207 C165.68339,70.7586207 167,72.081922 167,73.7068966 C167,75.3351843 165.67649,76.6551724 164.059269,76.6551724 L141.715379,76.6551724 C140.091258,76.6551724 138.774648,75.3318711 138.774648,73.7068966 Z M0,85.5 C0,83.8717122 1.32604958,82.5517241 2.95668952,82.5517241 L40.557395,82.5517241 C42.1903295,82.5517241 43.5140845,83.8750254 43.5140845,85.5 C43.5140845,87.1282878 42.1880349,88.4482759 40.557395,88.4482759 L2.95668952,88.4482759 C1.32375499,88.4482759 0,87.1249746 0,85.5 Z M49.3943662,85.5 C49.3943662,83.8717122 50.7129946,82.5517241 52.3371657,82.5517241 L72.3248062,82.5517241 C73.9500694,82.5517241 75.2676056,83.8750254 75.2676056,85.5 C75.2676056,87.1282878 73.9489772,88.4482759 72.3248062,88.4482759 L52.3371657,88.4482759 C50.7119024,88.4482759 49.3943662,87.1249746 49.3943662,85.5 Z M79.971831,85.5 C79.971831,83.8717122 81.2978806,82.5517241 82.9285205,82.5517241 L120.529226,82.5517241 C122.162161,82.5517241 123.485915,83.8750254 123.485915,85.5 C123.485915,87.1282878 122.159866,88.4482759 120.529226,88.4482759 L82.9285205,88.4482759 C81.295586,88.4482759 79.971831,87.1249746 79.971831,85.5 Z M129.366197,85.5 C129.366197,83.8717122 130.683538,82.5517241 132.319259,82.5517241 L164.046939,82.5517241 C165.677869,82.5517241 167,83.8750254 167,85.5 C167,87.1282878 165.68266,88.4482759 164.046939,88.4482759 L132.319259,88.4482759 C130.688328,88.4482759 129.366197,87.1249746 129.366197,85.5 Z M0,97.2931034 C0,95.6648157 1.31182855,94.3448276 2.95226349,94.3448276 L52.3223844,94.3448276 C53.9528745,94.3448276 55.2746479,95.6681289 55.2746479,97.2931034 C55.2746479,98.9213912 53.9628193,100.241379 52.3223844,100.241379 L2.95226349,100.241379 C1.32177339,100.241379 0,98.918078 0,97.2931034 Z M61.1549296,97.2931034 C61.1549296,95.6648157 62.4784392,94.3448276 64.0956604,94.3448276 L86.4395509,94.3448276 C88.0636717,94.3448276 89.3802817,95.6681289 89.3802817,97.2931034 C89.3802817,98.9213912 88.0567721,100.241379 86.4395509,100.241379 L64.0956604,100.241379 C62.4715396,100.241379 61.1549296,98.918078 61.1549296,97.2931034 Z M95.2605634,97.2931034 C95.2605634,95.6648157 96.5779037,94.3448276 98.2136248,94.3448276 L129.941305,94.3448276 C131.572236,94.3448276 132.894366,95.6681289 132.894366,97.2931034 C132.894366,98.9213912 131.577026,100.241379 129.941305,100.241379 L98.2136248,100.241379 C96.582694,100.241379 95.2605634,98.918078 95.2605634,97.2931034 Z M138.774648,97.2931034 C138.774648,95.6648157 140.098158,94.3448276 141.715379,94.3448276 L164.059269,94.3448276 C165.68339,94.3448276 167,95.6681289 167,97.2931034 C167,98.9213912 165.67649,100.241379 164.059269,100.241379 L141.715379,100.241379 C140.091258,100.241379 138.774648,98.918078 138.774648,97.2931034 Z M0,109.086207 C0,107.457919 1.32604958,106.137931 2.95668952,106.137931 L40.557395,106.137931 C42.1903295,106.137931 43.5140845,107.461232 43.5140845,109.086207 C43.5140845,110.714495 42.1880349,112.034483 40.557395,112.034483 L2.95668952,112.034483 C1.32375499,112.034483 0,110.711181 0,109.086207 Z M49.3943662,109.086207 C49.3943662,107.457919 50.7129946,106.137931 52.3371657,106.137931 L72.3248062,106.137931 C73.9500694,106.137931 75.2676056,107.461232 75.2676056,109.086207 C75.2676056,110.714495 73.9489772,112.034483 72.3248062,112.034483 L52.3371657,112.034483 C50.7119024,112.034483 49.3943662,110.711181 49.3943662,109.086207 Z M79.971831,109.086207 C79.971831,107.457919 81.2978806,106.137931 82.9285205,106.137931 L120.529226,106.137931 C122.162161,106.137931 123.485915,107.461232 123.485915,109.086207 C123.485915,110.714495 122.159866,112.034483 120.529226,112.034483 L82.9285205,112.034483 C81.295586,112.034483 79.971831,110.711181 79.971831,109.086207 Z M129.366197,109.086207 C129.366197,107.457919 130.683538,106.137931 132.319259,106.137931 L164.046939,106.137931 C165.677869,106.137931 167,107.461232 167,109.086207 C167,110.714495 165.68266,112.034483 164.046939,112.034483 L132.319259,112.034483 C130.688328,112.034483 129.366197,110.711181 129.366197,109.086207 Z M0,120.87931 C0,119.251023 1.31182855,117.931034 2.95226349,117.931034 L52.3223844,117.931034 C53.9528745,117.931034 55.2746479,119.254336 55.2746479,120.87931 C55.2746479,122.507598 53.9628193,123.827586 52.3223844,123.827586 L2.95226349,123.827586 C1.32177339,123.827586 0,122.504285 0,120.87931 Z M61.1549296,120.87931 C61.1549296,119.251023 62.4784392,117.931034 64.0956604,117.931034 L86.4395509,117.931034 C88.0636717,117.931034 89.3802817,119.254336 89.3802817,120.87931 C89.3802817,122.507598 88.0567721,123.827586 86.4395509,123.827586 L64.0956604,123.827586 C62.4715396,123.827586 61.1549296,122.504285 61.1549296,120.87931 Z M95.2605634,120.87931 C95.2605634,119.251023 96.5779037,117.931034 98.2136248,117.931034 L129.941305,117.931034 C131.572236,117.931034 132.894366,119.254336 132.894366,120.87931 C132.894366,122.507598 131.577026,123.827586 129.941305,123.827586 L98.2136248,123.827586 C96.582694,123.827586 95.2605634,122.504285 95.2605634,120.87931 Z M138.774648,120.87931 C138.774648,119.251023 140.098158,117.931034 141.715379,117.931034 L164.059269,117.931034 C165.68339,117.931034 167,119.254336 167,120.87931 C167,122.507598 165.67649,123.827586 164.059269,123.827586 L141.715379,123.827586 C140.091258,123.827586 138.774648,122.504285 138.774648,120.87931 Z M0,132.672414 C0,131.044126 1.32604958,129.724138 2.95668952,129.724138 L40.557395,129.724138 C42.1903295,129.724138 43.5140845,131.047439 43.5140845,132.672414 C43.5140845,134.300702 42.1880349,135.62069 40.557395,135.62069 L2.95668952,135.62069 C1.32375499,135.62069 0,134.297388 0,132.672414 Z M49.3943662,132.672414 C49.3943662,131.044126 50.7129946,129.724138 52.3371657,129.724138 L72.3248062,129.724138 C73.9500694,129.724138 75.2676056,131.047439 75.2676056,132.672414 C75.2676056,134.300702 73.9489772,135.62069 72.3248062,135.62069 L52.3371657,135.62069 C50.7119024,135.62069 49.3943662,134.297388 49.3943662,132.672414 Z M79.971831,132.672414 C79.971831,131.044126 81.2978806,129.724138 82.9285205,129.724138 L120.529226,129.724138 C122.162161,129.724138 123.485915,131.047439 123.485915,132.672414 C123.485915,134.300702 122.159866,135.62069 120.529226,135.62069 L82.9285205,135.62069 C81.295586,135.62069 79.971831,134.297388 79.971831,132.672414 Z M129.366197,132.672414 C129.366197,131.044126 130.683538,129.724138 132.319259,129.724138 L164.046939,129.724138 C165.677869,129.724138 167,131.047439 167,132.672414 C167,134.300702 165.68266,135.62069 164.046939,135.62069 L132.319259,135.62069 C130.688328,135.62069 129.366197,134.297388 129.366197,132.672414 Z M0,144.465517 C0,142.837229 1.31182855,141.517241 2.95226349,141.517241 L52.3223844,141.517241 C53.9528745,141.517241 55.2746479,142.840543 55.2746479,144.465517 C55.2746479,146.093805 53.9628193,147.413793 52.3223844,147.413793 L2.95226349,147.413793 C1.32177339,147.413793 0,146.090492 0,144.465517 Z M61.1549296,144.465517 C61.1549296,142.837229 62.4784392,141.517241 64.0956604,141.517241 L86.4395509,141.517241 C88.0636717,141.517241 89.3802817,142.840543 89.3802817,144.465517 C89.3802817,146.093805 88.0567721,147.413793 86.4395509,147.413793 L64.0956604,147.413793 C62.4715396,147.413793 61.1549296,146.090492 61.1549296,144.465517 Z M95.2605634,144.465517 C95.2605634,142.837229 96.5779037,141.517241 98.2136248,141.517241 L129.941305,141.517241 C131.572236,141.517241 132.894366,142.840543 132.894366,144.465517 C132.894366,146.093805 131.577026,147.413793 129.941305,147.413793 L98.2136248,147.413793 C96.582694,147.413793 95.2605634,146.090492 95.2605634,144.465517 Z M138.774648,144.465517 C138.774648,142.837229 140.098158,141.517241 141.715379,141.517241 L164.059269,141.517241 C165.68339,141.517241 167,142.840543 167,144.465517 C167,146.093805 165.67649,147.413793 164.059269,147.413793 L141.715379,147.413793 C140.091258,147.413793 138.774648,146.090492 138.774648,144.465517 Z M0,156.258621 C0,154.630333 1.32604958,153.310345 2.95668952,153.310345 L40.557395,153.310345 C42.1903295,153.310345 43.5140845,154.633646 43.5140845,156.258621 C43.5140845,157.886908 42.1880349,159.206897 40.557395,159.206897 L2.95668952,159.206897 C1.32375499,159.206897 0,157.883595 0,156.258621 Z M49.3943662,156.258621 C49.3943662,154.630333 50.7129946,153.310345 52.3371657,153.310345 L72.3248062,153.310345 C73.9500694,153.310345 75.2676056,154.633646 75.2676056,156.258621 C75.2676056,157.886908 73.9489772,159.206897 72.3248062,159.206897 L52.3371657,159.206897 C50.7119024,159.206897 49.3943662,157.883595 49.3943662,156.258621 Z M79.971831,156.258621 C79.971831,154.630333 81.2978806,153.310345 82.9285205,153.310345 L120.529226,153.310345 C122.162161,153.310345 123.485915,154.633646 123.485915,156.258621 C123.485915,157.886908 122.159866,159.206897 120.529226,159.206897 L82.9285205,159.206897 C81.295586,159.206897 79.971831,157.883595 79.971831,156.258621 Z M129.366197,156.258621 C129.366197,154.630333 130.683538,153.310345 132.319259,153.310345 L164.046939,153.310345 C165.677869,153.310345 167,154.633646 167,156.258621 C167,157.886908 165.68266,159.206897 164.046939,159.206897 L132.319259,159.206897 C130.688328,159.206897 129.366197,157.883595 129.366197,156.258621 Z M0,168.051724 C0,166.423436 1.31182855,165.103448 2.95226349,165.103448 L52.3223844,165.103448 C53.9528745,165.103448 55.2746479,166.42675 55.2746479,168.051724 C55.2746479,169.680012 53.9628193,171 52.3223844,171 L2.95226349,171 C1.32177339,171 0,169.676699 0,168.051724 Z M61.1549296,168.051724 C61.1549296,166.423436 62.4784392,165.103448 64.0956604,165.103448 L86.4395509,165.103448 C88.0636717,165.103448 89.3802817,166.42675 89.3802817,168.051724 C89.3802817,169.680012 88.0567721,171 86.4395509,171 L64.0956604,171 C62.4715396,171 61.1549296,169.676699 61.1549296,168.051724 Z M95.2605634,168.051724 C95.2605634,166.423436 96.5779037,165.103448 98.2136248,165.103448 L129.941305,165.103448 C131.572236,165.103448 132.894366,166.42675 132.894366,168.051724 C132.894366,169.680012 131.577026,171 129.941305,171 L98.2136248,171 C96.582694,171 95.2605634,169.676699 95.2605634,168.051724 Z M138.774648,168.051724 C138.774648,166.423436 140.098158,165.103448 141.715379,165.103448 L164.059269,165.103448 C165.68339,165.103448 167,166.42675 167,168.051724 C167,169.680012 165.67649,171 164.059269,171 L141.715379,171 C140.091258,171 138.774648,169.676699 138.774648,168.051724 Z" opacity=".2"/>
    <path fill="url(#b)" d="M24.6971831,84.3029557 L51.5563645,70.2044335 L51.5563645,77.3534483 C51.5563645,77.863303 51.4237279,78.3343574 51.1584507,78.7666256 C50.8931735,79.1988938 50.4731576,79.5701955 49.8983903,79.8805419 L40.4810971,84.9679803 C39.9063299,85.2783267 39.2984121,85.5387921 38.6573255,85.7493842 C38.016239,85.9599764 37.3420029,86.15394 36.6345971,86.3312808 C37.3420029,86.5086216 38.016239,86.6915015 38.6573255,86.8799261 C39.2984121,87.0683507 39.9063299,87.3177324 40.4810971,87.6280788 L49.8983903,92.7487685 C50.4731576,93.0591149 50.8931735,93.4248747 51.1584507,93.8460591 C51.4237279,94.2672435 51.5563645,94.7327561 51.5563645,95.2426108 L51.5563645,102.391626 L24.6971831,88.3263547 L24.6971831,84.3029557 Z M87.2359687,108.343596 C86.9927979,108.942121 86.677786,109.474136 86.2909234,109.939655 C85.9040609,110.405175 85.4729919,110.793102 84.9977036,111.103448 C84.5224153,111.413795 84.013975,111.646551 83.4723674,111.801724 C82.9307598,111.956897 82.3946868,112.034483 81.8641324,112.034483 L77.4870806,112.034483 L96.3216671,62.4568966 C96.7637958,61.326349 97.4380318,60.4618257 98.3443956,59.8633005 C99.2507593,59.2647753 100.300799,58.9655172 101.494546,58.9655172 L105.871598,58.9655172 L87.2359687,108.343596 Z M142.280711,88.3263547 L115.42153,102.391626 L115.42153,95.2426108 C115.42153,94.7327561 115.554166,94.2672435 115.819443,93.8460591 C116.084721,93.4248747 116.504736,93.0591149 117.079504,92.7487685 L126.496797,87.6280788 C127.049458,87.3177324 127.651849,87.0683507 128.303989,86.8799261 C128.956129,86.6915015 129.635891,86.5086216 130.343297,86.3312808 C129.635891,86.15394 128.956129,85.9599764 128.303989,85.7493842 C127.651849,85.5387921 127.049458,85.2783267 126.496797,84.9679803 L117.079504,79.8805419 C116.504736,79.5701955 116.084721,79.1988938 115.819443,78.7666256 C115.554166,78.3343574 115.42153,77.863303 115.42153,77.3534483 L115.42153,70.2044335 L142.280711,84.3029557 L142.280711,88.3263547 Z"/>
  </g>
</svg>
