<svg xmlns="http://www.w3.org/2000/svg" width="170" height="170" viewBox="0 0 170 170">
  <defs>
    <linearGradient id="a" x1="0%" y1="0%" y2="97.761%">
      <stop stop-color="#9648BF" offset="0%"/>
      <stop stop-color="#7E5CE8" offset="100%"/>
    </linearGradient>
  </defs>
  <g fill="none" fill-rule="evenodd">
    <g transform="translate(26 18)">
      <polygon fill="url(#a)" stroke="url(#a)" stroke-width="7" points="58.457 0 116.913 33.75 116.913 101.25 58.457 135 0 101.25 0 33.75" stroke-linecap="round" stroke-linejoin="round"/>
      <path fill="#FFFFFF" d="M14.4642857,66.2894634 L37.7781697,54.0856525 L37.7781697,60.2739057 C37.7781697,60.7152406 37.6630406,61.1229897 37.4327789,61.497165 C37.2025171,61.8713403 36.8379415,62.1927425 36.3390411,62.4613812 L28.1647904,66.8651148 C27.66589,67.1337535 27.1382148,67.3592148 26.5817489,67.5415053 C26.025283,67.7237958 25.4400432,67.8916925 24.8260119,68.0452003 C25.4400432,68.1987082 26.025283,68.3570107 26.5817489,68.5201128 C27.1382148,68.6832148 27.66589,68.899082 28.1647904,69.1677207 L36.3390411,73.6002369 C36.8379415,73.8688756 37.2025171,74.1854807 37.4327789,74.5500618 C37.6630406,74.9146429 37.7781697,75.3175949 37.7781697,75.7589299 L37.7781697,81.947183 L14.4642857,69.7721547 L14.4642857,66.2894634 Z M55.0796941,87.0992636 C54.8686208,87.6173525 54.5951891,88.077869 54.2593908,88.4808271 C53.9235924,88.8837851 53.5494227,89.2195784 53.1368704,89.4882171 C52.7243182,89.7568558 52.2829898,89.9583318 51.8128721,90.0926511 C51.3427544,90.2269705 50.8774408,90.2941292 50.4169173,90.2941292 L46.6176177,90.2941292 L62.9661191,47.379313 C63.3498886,46.4007006 63.9351284,45.6523612 64.721856,45.1342723 C65.5085836,44.6161834 66.4200226,44.3571429 67.4562004,44.3571429 L71.2555001,44.3571429 L55.0796941,87.0992636 Z M103.178571,69.7721547 L79.8646874,81.947183 L79.8646874,75.7589299 C79.8646874,75.3175949 79.9798165,74.9146429 80.2100783,74.5500618 C80.44034,74.1854807 80.8049156,73.8688756 81.303816,73.6002369 L89.4780667,69.1677207 C89.9577787,68.899082 90.4806569,68.6832148 91.046717,68.5201128 C91.6127771,68.3570107 92.2028139,68.1987082 92.8168452,68.0452003 C92.2028139,67.8916925 91.6127771,67.7237958 91.046717,67.5415053 C90.4806569,67.3592148 89.9577787,67.1337535 89.4780667,66.8651148 L81.303816,62.4613812 C80.8049156,62.1927425 80.44034,61.8713403 80.2100783,61.497165 C79.9798165,61.1229897 79.8646874,60.7152406 79.8646874,60.2739057 L79.8646874,54.0856525 L103.178571,66.2894634 L103.178571,69.7721547 Z"/>
    </g>
    <circle cx="44.5" cy="62.5" r="54.5" fill="#FFFFFF" opacity=".05"/>
  </g>
</svg>
