<svg xmlns="http://www.w3.org/2000/svg" width="170" height="170" viewBox="0 0 170 170">
  <defs>
    <linearGradient id="a" x1="0%" y1="0%" y2="97.761%">
      <stop stop-color="#9648BF" offset="0%"/>
      <stop stop-color="#7E5CE8" offset="100%"/>
    </linearGradient>
  </defs>
  <g fill="none" fill-rule="evenodd" transform="translate(6 2)">
    <g transform="translate(35.712 33.651)">
      <path fill="url(#a)" d="M84.7159422,40.8746283 C84.7159422,66.1496435 62.024172,83.2424491 62.024172,103.188102 L22.6917702,103.188102 C22.6917702,83.2424491 0,66.1435736 0,40.8746283 C0,14.5131031 21.1668833,0 42.3337665,0 C63.5248544,0 84.7159422,14.5313128 84.7159422,40.8746283 Z" opacity=".8"/>
      <path fill="#FFFFFF" fill-opacity=".1" d="M47.508928,0.288694412 C56.5257654,8.5584929 62.1768369,20.4261954 62.1768369,33.6111111 C62.1768369,58.5996358 41.8786466,78.8568376 16.83956,78.8568376 C15.9063877,78.8568376 14.9798002,78.8287014 14.060603,78.7732326 C7.64537644,67.4566928 0,55.5420022 0,40.8746283 C0,14.5131031 21.1668833,0 42.3337665,0 C44.0626563,0 45.7915461,0.0967237137 47.508928,0.288694412 Z"/>
      <rect width="45.964" height="30.311" x="19.305" y="101.037" fill="url(#a)" rx="5"/>
    </g>
    <ellipse cx="79" cy="79.243" fill="url(#a)" fill-opacity=".1" rx="79" ry="79.243"/>
  </g>
</svg>
