<?xml version="1.0" encoding="utf-8"?>
<!-- Generator: Adobe Illustrator 19.0.0, SVG Export Plug-In . SVG Version: 6.00 Build 0)  -->
<svg version="1.1" id="Layer_1" xmlns="http://www.w3.org/2000/svg" xmlns:xlink="http://www.w3.org/1999/xlink" x="0px" y="0px"
	 viewBox="0 0 118.098 136.612" enable-background="new 0 0 118.098 136.612" xml:space="preserve">
<linearGradient id="XMLID_15_" gradientUnits="userSpaceOnUse" x1="0" y1="68.3062" x2="118" y2="68.3062">
	<stop  offset="0" style="stop-color:#9648BF"/>
	<stop  offset="1" style="stop-color:#7E5CE8"/>
</linearGradient>
<polygon id="XMLID_1_" opacity="0.1" fill="url(#XMLID_15_)" points="88.658,17.076 58.945,0 0,34.154 0,102.459 29.145,119.235
	59.215,136.612 118,102.459 118,34.154 "/>
<linearGradient id="XMLID_16_" gradientUnits="userSpaceOnUse" x1="0.3288" y1="119.5357" x2="118.1205" y2="119.5357">
	<stop  offset="0" style="stop-color:#9648BF"/>
	<stop  offset="1" style="stop-color:#7E5CE8"/>
</linearGradient>
<polygon id="XMLID_7_" fill="url(#XMLID_16_)" fill-opacity="0.1" points="0.329,102.459 59.053,130.25 118.12,102.459
	59.319,136.612 "/>
<path id="XMLID_6_" opacity="0.6" fill="#FFFFFF" d="M59.602,33.253c-19.488,0-35.288,15.8-35.288,35.289
	c0,1.027,0.054,2.041,0.14,3.045c1.545,18.063,16.686,32.242,35.148,32.242c18.462,0,33.604-14.18,35.15-32.242
	c0.086-1.004,0.139-2.018,0.139-3.045C94.89,49.053,79.091,33.253,59.602,33.253z"/>
<g>
	<linearGradient id="XMLID_17_" gradientUnits="userSpaceOnUse" x1="55.1794" y1="77.5835" x2="75.9684" y2="77.5835">
		<stop  offset="0" style="stop-color:#9648BF"/>
		<stop  offset="1" style="stop-color:#7E5CE8"/>
	</linearGradient>
	<path id="XMLID_5_" fill="url(#XMLID_17_)" d="M58.762,79.608c-0.337-0.007-0.649-0.06-0.945-0.163
		c-0.299-0.104-0.565-0.241-0.804-0.413c-0.237-0.175-0.442-0.378-0.617-0.614c-0.175-0.232-0.313-0.478-0.408-0.735l-0.809-2.124
		l17.343,0.024c0.627,0.007,1.169,0.175,1.625,0.505c0.458,0.329,0.794,0.783,1.017,1.363l0.805,2.122L58.762,79.608z"/>
	<linearGradient id="XMLID_18_" gradientUnits="userSpaceOnUse" x1="42.9665" y1="65.8003" x2="56.902" y2="65.8003">
		<stop  offset="0" style="stop-color:#9648BF"/>
		<stop  offset="1" style="stop-color:#7E5CE8"/>
	</linearGradient>
	<path id="XMLID_2_" fill="url(#XMLID_18_)" d="M56.902,66.851l-13.935,7.276V70.43c0-0.266,0.069-0.505,0.208-0.724
		c0.137-0.218,0.354-0.406,0.653-0.567l4.885-2.65c0.286-0.16,0.602-0.288,0.938-0.386c0.338-0.099,0.691-0.192,1.059-0.284
		c-0.367-0.093-0.721-0.192-1.059-0.302c-0.337-0.109-0.652-0.244-0.938-0.404l-4.885-2.632c-0.299-0.161-0.517-0.353-0.653-0.577
		c-0.139-0.223-0.208-0.467-0.208-0.731v-3.698l13.935,7.295V66.851z"/>
</g>
</svg>
