<svg xmlns="http://www.w3.org/2000/svg" width="170" height="170" viewBox="0 0 170 170">
  <defs>
    <linearGradient id="a" x1="0%" y1="0%" y2="97.761%">
      <stop stop-color="#9648BF" offset="0%"/>
      <stop stop-color="#7E5CE8" offset="100%"/>
    </linearGradient>
  </defs>
  <g fill="none" fill-rule="evenodd" transform="translate(10 15)">
    <path fill="url(#a)" d="M90.3692904,113.217165 L101.500307,113.217165 C104.257346,113.217165 106.493892,110.975636 106.493892,108.210571 L106.493892,49.379091 C106.493892,46.6044871 104.258187,44.3724972 101.500307,44.3724972 L4.99358485,44.3724972 C2.23654595,44.3724972 -1.13686838e-13,46.6140256 -1.13686838e-13,49.379091 L-1.13686838e-13,108.210571 C-1.13686838e-13,110.985175 2.23570409,113.217165 4.99358485,113.217165 L61.7377395,113.217165 L86.8076738,137.934075 C88.7763894,139.875068 90.3692904,139.204173 90.3692904,136.439308 L90.3692904,113.217165 Z" opacity=".5" transform="matrix(-1 0 0 1 106.494 0)"/>
    <path fill="url(#a)" d="M131.555407,83.0195109 L146.005176,83.0195109 C148.771021,83.0195109 151,80.778122 151,78.0132286 L151,5.00628233 C151,2.24205167 148.763741,-7.10542736e-15 146.005176,-7.10542736e-15 L27.5742633,-7.10542736e-15 C24.8084186,-7.10542736e-15 22.5794393,2.24138895 22.5794393,5.00628233 L22.5794393,78.0132286 C22.5794393,80.7774593 24.8156982,83.0195109 27.5742633,83.0195109 L97.0287341,83.0195109 L127.999227,113.553891 C129.963084,115.490094 131.555407,114.822718 131.555407,112.062896 L131.555407,83.0195109 Z"/>
    <g fill="#FFFFFF" transform="translate(61.773 38.182)">
      <ellipse cx="4.576" cy="4.628" rx="4.576" ry="4.628"/>
      <ellipse cx="25.167" cy="4.628" rx="4.576" ry="4.628"/>
      <ellipse cx="45.758" cy="4.628" rx="4.576" ry="4.628"/>
    </g>
  </g>
</svg>
