<svg xmlns="http://www.w3.org/2000/svg" width="122" height="141" viewBox="0 0 122 141">
  <defs>
    <linearGradient id="a" x1="0%" y1="50%" y2="50%">
      <stop stop-color="#9648BF" offset="0%"/>
      <stop stop-color="#7E5CE8" offset="100%"/>
    </linearGradient>
    <linearGradient id="b" x1="0%" y1="50%" y2="50%">
      <stop stop-color="#9648BF" offset="0%"/>
      <stop stop-color="#7E5CE8" offset="100%"/>
    </linearGradient>
    <linearGradient id="c" x1="-.001%" x2="100.002%" y1="50%" y2="50%">
      <stop stop-color="#9648BF" offset="0%"/>
      <stop stop-color="#7E5CE8" offset="100%"/>
    </linearGradient>
    <linearGradient id="d" x1=".006%" x2="100.002%" y1="49.981%" y2="49.981%">
      <stop stop-color="#9648BF" offset="0%"/>
      <stop stop-color="#7E5CE8" offset="100%"/>
    </linearGradient>
  </defs>
  <g fill="none">
    <polygon fill="url(#a)" fill-opacity=".1" points="90.867 18.062 60.488 .5 .047 35.626 .047 105.875 29.66 123.129 60.767 141 121.405 105.875 121.405 35.626"/>
    <polygon fill="url(#b)" fill-opacity=".1" points=".207 105.875 59.587 134.378 120.453 105.875 60.331 141"/>
    <path fill="#FFFFFF" d="M60.622,34.7 C40.579,34.7 24.33,50.95 24.33,70.993 C24.33,72.049 24.386,73.092 24.474,74.124 C26.063,92.7 41.635,107.284 60.622,107.284 C79.609,107.284 95.182,92.7 96.771,74.124 C96.86,73.092 96.914,72.049 96.914,70.993 C96.914,50.949 80.666,34.7 60.622,34.7 Z" opacity=".6"/>
    <g transform="translate(42 44)">
      <path fill="url(#c)" fill-opacity=".5" d="M28.817,20.604 L28.817,10.42 C28.817,4.797 24.243,0.224 18.622,0.224 C13.001,0.224 8.427,4.797 8.427,10.42 L8.427,20.604 C3.629,23.869 0.476,29.373 0.476,35.615 C0.476,45.636 8.601,53.76 18.622,53.76 C28.643,53.76 36.768,45.636 36.768,35.615 C36.769,29.373 33.615,23.869 28.817,20.604 Z M10.67,19.322 L10.67,10.42 C10.67,6.035 14.238,2.468 18.622,2.468 C23.007,2.468 26.573,6.034 26.573,10.42 L26.573,19.322 C24.17,18.146 21.478,17.468 18.622,17.468 C15.766,17.468 13.074,18.146 10.67,19.322 Z"/>
      <g fill="#FFFFFF" opacity=".6" transform="translate(5 22)">
        <path d="M18.42 17.732C18.78 17.371 19.374 17.369 19.735 17.732L23.517 21.536C23.88 21.9 23.878 22.492 23.517 22.853L22.86 23.51C22.5 23.87 21.908 23.872 21.545 23.51L17.763 19.704C17.4 19.341 17.402 18.749 17.763 18.389L18.42 17.732zM4.387 3.723C4.748 3.362 5.341 3.36 5.702 3.723L9.504 7.5C9.867 7.864 9.864 8.457 9.504 8.818L8.847 9.474C8.485 9.835 7.893 9.837 7.531 9.474L3.73 5.696C3.367 5.333 3.369 4.741 3.73 4.381L4.387 3.723zM17.739 8.82C17.377 8.461 17.375 7.866 17.739 7.505L21.543 3.723C21.906 3.358 22.5 3.361 22.859 3.723L23.515 4.379C23.878 4.74 23.88 5.332 23.515 5.695L19.712 9.477C19.348 9.839 18.755 9.836 18.395 9.476L17.739 8.82zM3.729 22.853C3.37 22.493 3.368 21.899 3.73 21.537L7.507 17.736C7.87 17.373 8.463 17.376 8.824 17.736L9.48 18.393C9.843 18.754 9.844 19.346 9.481 19.708L5.702 23.51C5.341 23.872 4.748 23.871 4.386 23.51L3.729 22.853zM13.145 7.307C12.636 7.309 12.213 6.89 12.215 6.377L12.231 1.013C12.231.499 12.652.081 13.16.082L14.089.082C14.602.081 15.022.499 15.021 1.013L15.005 6.379C15.004 6.89 14.583 7.307 14.074 7.307L13.145 7.307 13.145 7.307zM13.16 27.137C12.652 27.136 12.231 26.718 12.231 26.205L12.215 20.848C12.215 20.333 12.636 19.915 13.147 19.915L14.074 19.915C14.586 19.915 15.005 20.333 15.006 20.846L15.022 26.205C15.023 26.718 14.602 27.136 14.09 27.137L13.16 27.137 13.16 27.137zM19.922 13.138C19.919 12.627 20.338 12.206 20.852 12.207L26.215 12.223C26.729 12.223 27.147 12.644 27.146 13.154L27.146 14.082C27.147 14.595 26.729 15.014 26.215 15.014L20.85 14.998C20.338 14.998 19.922 14.576 19.922 14.066L19.922 13.138 19.922 13.138zM.091 13.153C.092 12.643.51 12.222 1.022 12.223L6.38 12.206C6.894 12.207 7.312 12.626 7.312 13.138L7.312 14.065C7.312 14.579 6.895 14.997 6.382 14.998L1.022 15.013C.51 15.015.092 14.594.091 14.083L.091 13.153z"/>
      </g>
      <circle cx="18.621" cy="35.615" r="4.537" fill="url(#d)"/>
    </g>
  </g>
</svg>
