<svg xmlns="http://www.w3.org/2000/svg" width="125" height="144" viewBox="0 0 125 144">
  <defs>
    <linearGradient id="a" x1="0%" y1="50%" y2="50%">
      <stop stop-color="#9648BF" offset="0%"/>
      <stop stop-color="#7E5CE8" offset="100%"/>
    </linearGradient>
    <linearGradient id="b" x1="0%" x2="99.999%" y1="50%" y2="50%">
      <stop stop-color="#9648BF" offset="0%"/>
      <stop stop-color="#7E5CE8" offset="100%"/>
    </linearGradient>
    <linearGradient id="c" x1="-.002%" x2="99.998%" y1="49.999%" y2="49.999%">
      <stop stop-color="#9648BF" offset="0%"/>
      <stop stop-color="#7E5CE8" offset="100%"/>
    </linearGradient>
    <linearGradient id="d" x1="-.002%" x2="100.003%" y1="49.99%" y2="49.99%">
      <stop stop-color="#9648BF" offset="0%"/>
      <stop stop-color="#7E5CE8" offset="100%"/>
    </linearGradient>
    <linearGradient id="e" x1="-.002%" x2="100.003%" y1="50.005%" y2="50.005%">
      <stop stop-color="#9648BF" offset="0%"/>
      <stop stop-color="#7E5CE8" offset="100%"/>
    </linearGradient>
  </defs>
  <g fill="none">
    <polygon fill="url(#a)" fill-opacity=".1" points="93.511 17.938 62.483 0 .751 35.876 .751 107.625 30.996 125.248 62.769 143.5 124.699 107.625 124.699 35.876"/>
    <polygon fill="url(#b)" fill-opacity=".1" points=".915 107.625 61.563 136.737 123.729 107.625 62.322 143.5"/>
    <path fill="#FFFFFF" d="M62.727,34.769 C42.306,34.769 25.747,51.327 25.747,71.751 C25.747,72.827 25.804,73.889 25.893,74.941 C27.512,93.87 43.38,108.729 62.727,108.729 C82.075,108.729 97.944,93.87 99.564,74.941 C99.652,73.889 99.708,72.829 99.708,71.751 C99.707,51.327 83.151,34.769 62.727,34.769 Z" opacity=".6"/>
    <path fill="url(#c)" fill-opacity=".5" d="M81.223,70.374 C81.223,60.158 72.941,51.877 62.727,51.877 C52.513,51.877 44.232,60.158 44.232,70.374 C44.232,77.586 48.367,83.832 54.393,86.881 L54.387,86.881 C54.387,86.881 54.401,86.885 54.408,86.887 C54.561,86.968 54.715,87.042 54.87,87.116 C55.873,87.665 58.106,89.253 58.106,92.507 L58.106,96.093 C58.106,96.39 58.35,96.634 58.648,96.634 L66.808,96.634 C67.107,96.634 67.351,96.39 67.351,96.093 L67.351,92.507 C67.351,89.247 69.593,87.659 70.595,87.113 C70.746,87.041 70.899,86.967 71.05,86.887 C71.055,86.885 71.069,86.881 71.069,86.881 L71.064,86.881 C77.088,83.832 81.223,77.586 81.223,70.374 Z"/>
    <path fill="url(#d)" d="M68.175,91.846 C68.175,92.199 67.889,92.485 67.537,92.485 L57.917,92.485 C57.566,92.485 57.279,92.199 57.279,91.846 L57.279,91.211 C57.279,90.862 57.566,90.574 57.917,90.574 L67.537,90.574 C67.889,90.574 68.175,90.862 68.175,91.211 L68.175,91.846 Z" opacity=".8"/>
    <path fill="url(#e)" d="M68.175,94.877 C68.175,95.226 67.889,95.514 67.537,95.514 L57.917,95.514 C57.566,95.514 57.279,95.226 57.279,94.877 L57.279,94.24 C57.279,93.891 57.566,93.605 57.917,93.605 L67.537,93.605 C67.889,93.605 68.175,93.891 68.175,94.24 L68.175,94.877 Z" opacity=".8"/>
    <path fill="#FFFFFF" d="M68.505,64.987 C66.819,64.987 65.261,65.755 64.232,67.095 L64.353,67.186 L64.229,67.099 L62.727,69.102 L61.219,67.091 C60.191,65.755 58.634,64.987 56.948,64.987 C53.979,64.987 51.561,67.404 51.561,70.374 C51.561,73.345 53.979,75.758 56.948,75.758 C57.395,75.758 57.833,75.701 58.253,75.596 L59.861,86.117 C59.919,86.494 60.244,86.763 60.614,86.763 C60.653,86.763 60.691,86.761 60.729,86.753 C61.146,86.691 61.433,86.3 61.367,85.886 L59.704,74.995 C60.28,74.651 60.799,74.202 61.225,73.647 L62.727,71.644 L64.224,73.639 L64.223,73.639 C64.621,74.163 65.106,74.597 65.643,74.935 L64.084,85.893 C64.025,86.309 64.313,86.695 64.732,86.754 C64.769,86.76 64.804,86.762 64.839,86.762 C65.212,86.762 65.538,86.487 65.594,86.106 L67.092,75.565 C67.547,75.688 68.019,75.758 68.504,75.758 C71.474,75.758 73.892,73.344 73.892,70.373 C73.894,67.404 71.476,64.987 68.505,64.987 Z M60.008,72.726 C59.271,73.684 58.155,74.233 56.946,74.233 C54.816,74.233 53.084,72.504 53.084,70.375 C53.084,68.245 54.817,66.512 56.946,66.512 C58.156,66.512 59.27,67.062 60.003,68.014 L61.772,70.374 L60.008,72.726 Z M68.505,74.232 C67.3,74.232 66.188,73.686 65.448,72.731 L65.449,72.731 L63.678,70.374 L65.443,68.022 C66.18,67.061 67.296,66.511 68.505,66.511 C70.634,66.511 72.367,68.244 72.367,70.374 C72.367,72.503 70.634,74.232 68.505,74.232 Z" opacity=".6"/>
  </g>
</svg>
