<svg xmlns="http://www.w3.org/2000/svg" width="170" height="170" viewBox="0 0 170 170">
  <defs>
    <linearGradient id="a" x1="0%" y1="0%" y2="97.761%">
      <stop stop-color="#9648BF" offset="0%"/>
      <stop stop-color="#7E5CE8" offset="100%"/>
    </linearGradient>
  </defs>
  <g fill="none" fill-rule="evenodd" transform="translate(15 15)">
    <g fill="url(#a)">
      <rect width="141" height="141" opacity=".5" rx="5"/>
      <path d="M9,9.99948788 C9,9.44748596 9.4567285,9 9.99641253,9 L29.8708331,9 C30.4211366,9 30.8672457,9.44745338 30.8672457,9.99948788 L30.8672457,13.2486511 C30.8672457,13.800653 30.4105172,14.248139 29.8708331,14.248139 L9.99641253,14.248139 C9.44610908,14.248139 9,13.8006856 9,13.2486511 L9,9.99948788 Z M9,86.9721926 C9,86.4201907 9.4567285,85.9727047 9.99641253,85.9727047 L29.8708331,85.9727047 C30.4211366,85.9727047 30.8672457,86.4201581 30.8672457,86.9721926 L30.8672457,90.2213558 C30.8672457,90.7733577 30.4105172,91.2208437 29.8708331,91.2208437 L9.99641253,91.2208437 C9.44610908,91.2208437 9,90.7733903 9,90.2213558 L9,86.9721926 Z M18.6215881,19.621076 C18.6215881,19.0690741 19.0615353,18.6215881 19.6294674,18.6215881 L35.4114755,18.6215881 C35.9681119,18.6215881 36.4193548,19.0690415 36.4193548,19.621076 L36.4193548,22.8702392 C36.4193548,23.4222411 35.9794076,23.869727 35.4114755,23.869727 L19.6294674,23.869727 C19.072831,23.869727 18.6215881,23.4222737 18.6215881,22.8702392 L18.6215881,19.621076 Z M18.6215881,29.2426641 C18.6215881,28.6906621 19.0667241,28.2431762 19.6159939,28.2431762 L49.116016,28.2431762 C49.6652112,28.2431762 50.1104218,28.6906296 50.1104218,29.2426641 L50.1104218,32.4918273 C50.1104218,33.0438292 49.6652858,33.4913151 49.116016,33.4913151 L19.6159939,33.4913151 C19.0667988,33.4913151 18.6215881,33.0438618 18.6215881,32.4918273 L18.6215881,29.2426641 Z M18.6215881,48.4858402 C18.6215881,47.9338383 19.0667241,47.4863524 19.6159939,47.4863524 L49.116016,47.4863524 C49.6652112,47.4863524 50.1104218,47.9338057 50.1104218,48.4858402 L50.1104218,51.7350034 C50.1104218,52.2870054 49.6652858,52.7344913 49.116016,52.7344913 L19.6159939,52.7344913 C19.0667988,52.7344913 18.6215881,52.2870379 18.6215881,51.7350034 L18.6215881,48.4858402 Z M18.6215881,77.3506045 C18.6215881,76.7986026 19.0745492,76.3511166 19.6171461,76.3511166 L53.4510921,76.3511166 C54.0009236,76.3511166 54.4466501,76.79857 54.4466501,77.3506045 L54.4466501,80.5997677 C54.4466501,81.1517696 53.993689,81.5992556 53.4510921,81.5992556 L19.6171461,81.5992556 C19.0673146,81.5992556 18.6215881,81.1518022 18.6215881,80.5997677 L18.6215881,77.3506045 Z M18.6215881,58.1074283 C18.6215881,57.5554264 19.0783166,57.1079404 19.6180006,57.1079404 L39.4924212,57.1079404 C40.0427247,57.1079404 40.4888337,57.5553938 40.4888337,58.1074283 L40.4888337,61.3565915 C40.4888337,61.9085934 40.0321052,62.3560794 39.4924212,62.3560794 L19.6180006,62.3560794 C19.0676972,62.3560794 18.6215881,61.908626 18.6215881,61.3565915 L18.6215881,58.1074283 Z M28.2431762,67.7290164 C28.2431762,67.1770145 28.6817433,66.7295285 29.2478938,66.7295285 L44.980394,66.7295285 C45.5352843,66.7295285 45.9851117,67.1769819 45.9851117,67.7290164 L45.9851117,70.9781796 C45.9851117,71.5301815 45.5465445,71.9776675 44.980394,71.9776675 L29.2478938,71.9776675 C28.6930036,71.9776675 28.2431762,71.5302141 28.2431762,70.9781796 L28.2431762,67.7290164 Z M50.1290323,68.064004 C50.1290323,67.5120021 50.5811407,67.0645161 51.129401,67.0645161 L57.9996312,67.0645161 C58.5521196,67.0645161 59,67.5119695 59,68.064004 L59,71.3131672 C59,71.8651691 58.5478916,72.3126551 57.9996312,72.3126551 L51.129401,72.3126551 C50.5769126,72.3126551 50.1290323,71.8652017 50.1290323,71.3131672 L50.1290323,68.064004 Z M9,38.8642521 C9,38.3122502 9.44513605,37.8647643 9.99440585,37.8647643 L39.4944279,37.8647643 C40.0436231,37.8647643 40.4888337,38.3122176 40.4888337,38.8642521 L40.4888337,42.1134153 C40.4888337,42.6654173 40.0436977,43.1129032 39.4944279,43.1129032 L9.99440585,43.1129032 C9.44521066,43.1129032 9,42.6654499 9,42.1134153 L9,38.8642521 Z M40.4516129,19.6769072 C40.4516129,19.1249053 40.9014022,18.6774194 41.4581015,18.6774194 L53.4401616,18.6774194 C53.9960298,18.6774194 54.4466501,19.1248727 54.4466501,19.6769072 L54.4466501,22.9260704 C54.4466501,23.4780723 53.9968609,23.9255583 53.4401616,23.9255583 L41.4581015,23.9255583 C40.9022332,23.9255583 40.4516129,23.4781049 40.4516129,22.9260704 L40.4516129,19.6769072 Z" opacity=".7"/>
    </g>
    <g transform="translate(69)">
      <path fill="url(#a)" d="M-3.55271368e-15,1.42108547e-14 L67.0024628,1.42108547e-14 C69.7625264,1.42108547e-14 72,2.24324242 72,4.9975372 L72,136.002463 C72,138.762526 69.7567576,141 67.0024628,141 L1.77635684e-15,141 L0,1.42108547e-14 Z"/>
      <path fill="#FFFFFF" d="M50.952862,72.5013811 L36.4756005,87 L21.998339,72.5013811 C18.0005537,68.4976981 18.0005537,62.0064453 21.998339,58.0027623 C25.9961244,53.9990792 32.4778151,53.9990792 36.4756005,58.0027623 C40.4733859,53.9990792 46.9550766,53.9990792 50.952862,58.0027623 C54.9506473,62.0064453 54.9506473,68.4976981 50.952862,72.5013811 L50.952862,72.5013811 L50.952862,72.5013811 Z"/>
    </g>
  </g>
</svg>
