<svg xmlns="http://www.w3.org/2000/svg" width="170" height="170" viewBox="0 0 170 170">
  <defs>
    <linearGradient id="a" x1="0%" y1="0%" y2="97.761%">
      <stop stop-color="#9648BF" offset="0%"/>
      <stop stop-color="#7E5CE8" offset="100%"/>
    </linearGradient>
    <radialGradient id="b" fx="50%" fy="50%">
      <stop stop-color="#000000" offset="0%"/>
      <stop stop-color="#000000" stop-opacity="0" offset="100%"/>
    </radialGradient>
  </defs>
  <g fill="none" fill-rule="evenodd" transform="translate(15 15)">
    <g fill="url(#a)">
      <rect width="141" height="141" opacity=".5" rx="5"/>
      <path d="M19.5230769,21.5286999 C19.5230769,20.4210249 20.4119735,19.5230769 21.526584,19.5230769 L56.5657237,19.5230769 C57.6722301,19.5230769 58.5692308,20.4279437 58.5692308,21.5286999 L58.5692308,24.0251463 C58.5692308,25.1328212 57.6803342,26.0307692 56.5657237,26.0307692 L21.526584,26.0307692 C20.4200776,26.0307692 19.5230769,25.1259025 19.5230769,24.0251463 L19.5230769,21.5286999 Z M19.5230769,116.974854 C19.5230769,115.867179 20.4119735,114.969231 21.526584,114.969231 L56.5657237,114.969231 C57.6722301,114.969231 58.5692308,115.874098 58.5692308,116.974854 L58.5692308,119.4713 C58.5692308,120.578975 57.6803342,121.476923 56.5657237,121.476923 L21.526584,121.476923 C20.4200776,121.476923 19.5230769,120.572056 19.5230769,119.4713 L19.5230769,116.974854 Z M31.4538462,33.4594691 C31.4538462,32.3517941 32.3427427,31.4538462 33.4573532,31.4538462 L68.4964929,31.4538462 C69.6029993,31.4538462 70.5,32.3587129 70.5,33.4594691 L70.5,35.9559155 C70.5,37.0635905 69.6111034,37.9615385 68.4964929,37.9615385 L33.4573532,37.9615385 C32.3508468,37.9615385 31.4538462,37.0566717 31.4538462,35.9559155 L31.4538462,33.4594691 Z M31.4538462,45.3902384 C31.4538462,44.2825634 32.3498763,43.3846154 33.4482639,43.3846154 L83.6901976,43.3846154 C84.7916841,43.3846154 85.6846154,44.2894821 85.6846154,45.3902384 L85.6846154,47.8866847 C85.6846154,48.9943597 84.7885852,49.8923077 83.6901976,49.8923077 L33.4482639,49.8923077 C32.3467774,49.8923077 31.4538462,48.987441 31.4538462,47.8866847 L31.4538462,45.3902384 Z M31.4538462,69.2517768 C31.4538462,68.1441018 32.3498763,67.2461538 33.4482639,67.2461538 L83.6901976,67.2461538 C84.7916841,67.2461538 85.6846154,68.1510206 85.6846154,69.2517768 L85.6846154,71.7482232 C85.6846154,72.8558982 84.7885852,73.7538462 83.6901976,73.7538462 L33.4482639,73.7538462 C32.3467774,73.7538462 31.4538462,72.8489794 31.4538462,71.7482232 L31.4538462,69.2517768 Z M31.4538462,105.044085 C31.4538462,103.93641 32.3589402,103.038462 33.461992,103.038462 L101.030316,103.038462 C102.139384,103.038462 103.038462,103.943328 103.038462,105.044085 L103.038462,107.540531 C103.038462,108.648206 102.133368,109.546154 101.030316,109.546154 L33.461992,109.546154 C32.3529237,109.546154 31.4538462,108.641287 31.4538462,107.540531 L31.4538462,105.044085 Z M31.4538462,81.1825461 C31.4538462,80.0748711 32.3580714,79.1769231 33.4524881,79.1769231 L61.9936657,79.1769231 C63.0974852,79.1769231 63.9923077,80.0817898 63.9923077,81.1825461 L63.9923077,83.6789924 C63.9923077,84.7866674 63.0880824,85.6846154 61.9936657,85.6846154 L33.4524881,85.6846154 C32.3486686,85.6846154 31.4538462,84.7797487 31.4538462,83.6789924 L31.4538462,81.1825461 Z M43.3846154,93.1133153 C43.3846154,92.0056403 44.2867928,91.1076923 45.3784744,91.1076923 L68.506141,91.1076923 C69.6073189,91.1076923 70.5,92.012559 70.5,93.1133153 L70.5,95.6097616 C70.5,96.7174366 69.5978226,97.6153846 68.506141,97.6153846 L45.3784744,97.6153846 C44.2772965,97.6153846 43.3846154,96.7105179 43.3846154,95.6097616 L43.3846154,93.1133153 Z M75.9230769,93.1133153 C75.9230769,92.0056403 76.8252543,91.1076923 77.9169359,91.1076923 L101.044603,91.1076923 C102.14578,91.1076923 103.038462,92.012559 103.038462,93.1133153 L103.038462,95.6097616 C103.038462,96.7174366 102.136284,97.6153846 101.044603,97.6153846 L77.9169359,97.6153846 C76.815758,97.6153846 75.9230769,96.7105179 75.9230769,95.6097616 L75.9230769,93.1133153 Z M19.5230769,57.3210076 C19.5230769,56.2133326 20.4191071,55.3153846 21.5174947,55.3153846 L71.7594284,55.3153846 C72.8609149,55.3153846 73.7538462,56.2202513 73.7538462,57.3210076 L73.7538462,59.8174539 C73.7538462,60.9251289 72.857816,61.8230769 71.7594284,61.8230769 L21.5174947,61.8230769 C20.4160082,61.8230769 19.5230769,60.9182102 19.5230769,59.8174539 L19.5230769,57.3210076 Z M75.9230769,33.4594691 C75.9230769,32.3517941 76.8195522,31.4538462 77.9137837,31.4538462 L91.2862163,31.4538462 C92.3856533,31.4538462 93.2769231,32.3587129 93.2769231,33.4594691 L93.2769231,35.9559155 C93.2769231,37.0635905 92.3804478,37.9615385 91.2862163,37.9615385 L77.9137837,37.9615385 C76.8143467,37.9615385 75.9230769,37.0566717 75.9230769,35.9559155 L75.9230769,33.4594691 Z" opacity=".555"/>
    </g>
    <rect width="9" height="141" x="65" fill="url(#b)" fill-opacity=".2"/>
    <g transform="translate(69)">
      <path fill="url(#a)" d="M-3.55271368e-15,1.42108547e-14 L67.0024628,1.42108547e-14 C69.7625264,1.42108547e-14 72,2.24324242 72,4.9975372 L72,136.002463 C72,138.762526 69.7567576,141 67.0024628,141 L1.77635684e-15,141 L0,1.42108547e-14 Z"/>
      <path fill="#FFFFFF" d="M50.952862,72.5013811 L36.4756005,87 L21.998339,72.5013811 C18.0005537,68.4976981 18.0005537,62.0064453 21.998339,58.0027623 C25.9961244,53.9990792 32.4778151,53.9990792 36.4756005,58.0027623 C40.4733859,53.9990792 46.9550766,53.9990792 50.952862,58.0027623 C54.9506473,62.0064453 54.9506473,68.4976981 50.952862,72.5013811 L50.952862,72.5013811 L50.952862,72.5013811 Z"/>
    </g>
  </g>
</svg>
