<?xml version="1.0" encoding="utf-8"?>
<!-- Generator: Adobe Illustrator 19.0.0, SVG Export Plug-In . SVG Version: 6.00 Build 0)  -->
<svg version="1.1" id="Layer_1" xmlns="http://www.w3.org/2000/svg" xmlns:xlink="http://www.w3.org/1999/xlink" x="0px" y="0px"
	 viewBox="0 0 118.098 136.612" enable-background="new 0 0 118.098 136.612" xml:space="preserve">
<g>
	<linearGradient id="XMLID_18_" gradientUnits="userSpaceOnUse" x1="0" y1="68.3062" x2="118" y2="68.3062">
		<stop  offset="0" style="stop-color:#9648BF"/>
		<stop  offset="1" style="stop-color:#7E5CE8"/>
	</linearGradient>
	<polygon id="XMLID_1_" opacity="0.1" fill="url(#XMLID_18_)" points="88.658,17.076 58.945,0 0,34.154 0,102.459 29.145,119.235
		59.215,136.612 118,102.459 118,34.154 	"/>
	<linearGradient id="XMLID_69_" gradientUnits="userSpaceOnUse" x1="0.3288" y1="119.5357" x2="118.1205" y2="119.5357">
		<stop  offset="0" style="stop-color:#9648BF"/>
		<stop  offset="1" style="stop-color:#7E5CE8"/>
	</linearGradient>
	<polygon id="XMLID_68_" fill="url(#XMLID_69_)" fill-opacity="0.1" points="0.329,102.459 59.053,130.167 118.12,102.459
		59.319,136.612 	"/>
	<path id="XMLID_67_" opacity="0.6" fill="#FFFFFF" d="M59.602,33.253c-19.488,0-35.288,15.8-35.288,35.289
		c0,1.027,0.054,2.041,0.14,3.045c1.545,18.063,16.686,32.242,35.148,32.242c18.462,0,33.604-14.18,35.149-32.242
		c0.086-1.004,0.139-2.018,0.139-3.045C94.89,49.053,79.091,33.253,59.602,33.253z"/>
	<g>
		<linearGradient id="SVGID_1_" gradientUnits="userSpaceOnUse" x1="41.9577" y1="68.5413" x2="77.2468" y2="68.5413">
			<stop  offset="0" style="stop-color:#9648BF"/>
			<stop  offset="1" style="stop-color:#7E5CE8"/>
		</linearGradient>
		<path fill="url(#SVGID_1_)" fill-opacity="0.5" d="M69.515,62.33v-9.902c0-5.467-4.447-9.914-9.913-9.914
			c-5.466,0-9.913,4.447-9.913,9.914v9.902c-4.665,3.175-7.731,8.526-7.731,14.596c0,9.743,7.9,17.643,17.644,17.643
			c9.744,0,17.645-7.9,17.645-17.643C77.247,70.856,74.18,65.505,69.515,62.33z M51.871,61.084v-8.656
			c0-4.264,3.469-7.731,7.731-7.731c4.264,0,7.731,3.468,7.731,7.731v8.656c-2.337-1.144-4.954-1.803-7.731-1.803
			C56.825,59.281,54.208,59.94,51.871,61.084z"/>
		<g opacity="0.6">
			<path id="XMLID_21_" fill="#FFFFFF" d="M64.267,80.93c0.351-0.352,0.928-0.354,1.279,0l3.678,3.698
				c0.353,0.354,0.351,0.93,0,1.281l-0.64,0.639c-0.351,0.35-0.926,0.352-1.279,0l-3.677-3.7c-0.354-0.354-0.352-0.929,0-1.279
				L64.267,80.93z"/>
			<path id="XMLID_20_" fill="#FFFFFF" d="M50.623,67.308c0.352-0.351,0.928-0.353,1.279,0l3.696,3.673
				c0.354,0.353,0.351,0.93,0,1.281L54.96,72.9c-0.352,0.351-0.927,0.352-1.279,0l-3.696-3.674c-0.353-0.354-0.351-0.929,0-1.279
				L50.623,67.308z"/>
			<path id="XMLID_17_" fill="#FFFFFF" d="M63.605,72.264c-0.352-0.35-0.354-0.928,0-1.279l3.699-3.677
				c0.353-0.354,0.93-0.352,1.279,0l0.639,0.638c0.353,0.352,0.354,0.927,0,1.28l-3.698,3.678c-0.353,0.352-0.93,0.349-1.28-0.001
				L63.605,72.264z"/>
			<path id="XMLID_15_" fill="#FFFFFF" d="M49.983,85.908c-0.35-0.351-0.352-0.928,0.001-1.28l3.673-3.695
				c0.354-0.354,0.93-0.351,1.281,0l0.638,0.639c0.353,0.352,0.354,0.927,0.001,1.279l-3.675,3.696c-0.351,0.352-0.928,0.351-1.28,0
				L49.983,85.908z"/>
			<path id="XMLID_14_" fill="#FFFFFF" d="M59.138,70.792c-0.495,0.002-0.906-0.405-0.904-0.904l0.016-5.215
				c0-0.5,0.409-0.906,0.903-0.905h0.903c0.498-0.001,0.906,0.405,0.905,0.905l-0.015,5.217c-0.001,0.497-0.41,0.902-0.905,0.902
				H59.138z"/>
			<path id="XMLID_7_" fill="#FFFFFF" d="M59.153,90.073c-0.494-0.001-0.903-0.407-0.903-0.905l-0.016-5.21
				c0-0.5,0.409-0.906,0.906-0.906h0.901c0.498,0,0.905,0.406,0.906,0.904l0.015,5.212c0.001,0.498-0.408,0.904-0.905,0.905H59.153z
				"/>
			<path id="XMLID_6_" fill="#FFFFFF" d="M65.727,76.462c-0.002-0.497,0.405-0.906,0.904-0.905l5.215,0.016
				c0.5,0,0.906,0.409,0.905,0.904v0.902c0.001,0.499-0.405,0.906-0.905,0.906L66.63,78.27c-0.497,0-0.902-0.41-0.902-0.905V76.462z
				"/>
			<path id="XMLID_5_" fill="#FFFFFF" d="M46.446,76.477c0.001-0.495,0.407-0.904,0.905-0.903l5.21-0.017
				c0.5,0.001,0.906,0.408,0.906,0.906v0.901c0,0.499-0.406,0.905-0.904,0.906l-5.212,0.015c-0.498,0.002-0.904-0.407-0.905-0.904
				V76.477z"/>
		</g>
		<linearGradient id="XMLID_70_" gradientUnits="userSpaceOnUse" x1="55.1901" y1="76.9248" x2="64.0124" y2="76.9248">
			<stop  offset="0" style="stop-color:#9648BF"/>
			<stop  offset="1" style="stop-color:#7E5CE8"/>
		</linearGradient>
		<circle id="XMLID_2_" fill="url(#XMLID_70_)" cx="59.601" cy="76.926" r="4.411"/>
	</g>
</g>
</svg>
