<?xml version="1.0" encoding="utf-8"?>
<!-- Generator: Adobe Illustrator 19.0.0, SVG Export Plug-In . SVG Version: 6.00 Build 0)  -->
<svg version="1.1" id="Layer_1" xmlns="http://www.w3.org/2000/svg" xmlns:xlink="http://www.w3.org/1999/xlink" x="0px" y="0px"
	 viewBox="0 0 118.098 136.612" enable-background="new 0 0 118.098 136.612" xml:space="preserve">
<g>
	<linearGradient id="XMLID_15_" gradientUnits="userSpaceOnUse" x1="0" y1="68.3062" x2="118" y2="68.3062">
		<stop  offset="0" style="stop-color:#9648BF"/>
		<stop  offset="1" style="stop-color:#7E5CE8"/>
	</linearGradient>
	<polygon id="XMLID_1_" opacity="0.1" fill="url(#XMLID_15_)" points="88.658,17.076 58.945,0 0,34.154 0,102.459 29.145,119.235
		59.215,136.612 118,102.459 118,34.154 	"/>
	<linearGradient id="XMLID_16_" gradientUnits="userSpaceOnUse" x1="0.2871" y1="119.5357" x2="118.1205" y2="119.5357">
		<stop  offset="0" style="stop-color:#9648BF"/>
		<stop  offset="1" style="stop-color:#7E5CE8"/>
	</linearGradient>
	<polygon id="XMLID_7_" fill="url(#XMLID_16_)" fill-opacity="0.1" points="0.287,102.459 59.033,130.208 118.12,102.459
		59.319,136.612 	"/>
	<path id="XMLID_6_" opacity="0.6" fill="#FFFFFF" d="M59.363,33.253c-19.4,0-35.13,15.729-35.13,35.129
		c0,1.022,0.054,2.032,0.14,3.031c1.537,17.982,16.611,32.098,34.99,32.098s33.453-14.115,34.991-32.098
		c0.085-0.999,0.139-2.009,0.139-3.031C94.493,48.982,78.764,33.253,59.363,33.253z"/>
	<g enable-background="new    ">
		<linearGradient id="XMLID_17_" gradientUnits="userSpaceOnUse" x1="62.7888" y1="56.4029" x2="62.7907" y2="56.4029">
			<stop  offset="0" style="stop-color:#9648BF"/>
			<stop  offset="1" style="stop-color:#7E5CE8"/>
		</linearGradient>
		<polygon id="XMLID_5_" fill="url(#XMLID_17_)" points="62.789,56.403 62.789,56.404 62.791,56.401 		"/>
		<linearGradient id="XMLID_18_" gradientUnits="userSpaceOnUse" x1="42.481" y1="69.3824" x2="76.2458" y2="69.3824">
			<stop  offset="0" style="stop-color:#9648BF"/>
			<stop  offset="1" style="stop-color:#7E5CE8"/>
		</linearGradient>
		<path id="XMLID_2_" fill="url(#XMLID_18_)" d="M68.741,53.468c-2.423,0-4.58,1.149-5.95,2.935l-0.275,0.364
			c-0.031,0.044-1.67,2.221-3.153,2.221c-1.471,0-3.093-2.143-3.147-2.216l-0.282-0.371c-1.369-1.785-3.526-2.934-5.949-2.934
			c-4.143,0-7.502,3.358-7.502,7.506c0,0-0.004,0.234,0.033,0.658c0.006,0.059,0.008,0.115,0.015,0.174
			c0.298,2.916,2.375,13.057,16.833,23.491C73.82,74.862,75.9,64.722,76.196,61.806c0.007-0.059,0.011-0.115,0.016-0.174
			c0.037-0.424,0.034-0.658,0.034-0.658C76.246,56.826,72.884,53.468,68.741,53.468z"/>
	</g>
</g>
</svg>
