<svg xmlns="http://www.w3.org/2000/svg" width="170" height="170" viewBox="0 0 170 170">
  <defs>
    <linearGradient id="a" x1="0%" y1="0%" y2="97.761%">
      <stop stop-color="#9648BF" offset="0%"/>
      <stop stop-color="#7E5CE8" offset="100%"/>
    </linearGradient>
  </defs>
  <g fill="none" fill-rule="evenodd" transform="translate(12 13)">
    <rect width="109.553" height="109.714" y="34.2" fill="url(#a)" opacity=".1" rx="5"/>
    <rect width="109.553" height="109.714" x="17.802" y="16.457" fill="url(#a)" opacity=".3" rx="5"/>
    <rect width="109.553" height="109.714" x="35.605" fill="url(#a)" rx="5"/>
    <path fill="#FFFFFF" d="M58,54.2747707 L75.2999531,45.2189928 L75.2999531,49.8109557 C75.2999531,50.1384461 75.2145221,50.4410143 75.0436575,50.7186693 C74.8727929,50.9963242 74.6022614,51.2348191 74.2320548,51.4341611 L68.1663922,54.7019301 C67.7961856,54.9012721 67.4046268,55.0685745 66.991704,55.2038423 C66.5787813,55.3391101 66.144507,55.463697 65.6888681,55.5776067 C66.144507,55.6915164 66.5787813,55.8089841 66.991704,55.9300132 C67.4046268,56.0510422 67.7961856,56.2112254 68.1663922,56.4105674 L74.2320548,59.6996943 C74.6022614,59.8990363 74.8727929,60.1339716 75.0436575,60.4045072 C75.2145221,60.6750428 75.2999531,60.9740514 75.2999531,61.3015418 L75.2999531,65.8935047 L58,56.8590847 L58,54.2747707 Z M88.1384643,69.7165807 C87.9818384,70.1010261 87.7789398,70.4427501 87.5297623,70.7417632 C87.2805847,71.0407762 87.0029339,71.28995 86.6968016,71.489292 C86.3906692,71.688634 86.0631836,71.8381383 85.7143351,71.9378093 C85.3654865,72.0374803 85.0202029,72.0873151 84.6784737,72.0873151 L81.8592221,72.0873151 L93.9905472,40.2425865 C94.2753215,39.516412 94.7095959,38.9611104 95.2933832,38.5766651 C95.8771705,38.1922198 96.5534994,38 97.3223901,38 L100.141642,38 L88.1384643,69.7165807 Z M123.83,56.8590847 L106.530047,65.8935047 L106.530047,61.3015418 C106.530047,60.9740514 106.615478,60.6750428 106.786342,60.4045072 C106.957207,60.1339716 107.227739,59.8990363 107.597945,59.6996943 L113.663608,56.4105674 C114.019576,56.2112254 114.407575,56.0510422 114.827617,55.9300132 C115.247659,55.8089841 115.685493,55.6915164 116.141132,55.5776067 C115.685493,55.463697 115.247659,55.3391101 114.827617,55.2038423 C114.407575,55.0685745 114.019576,54.9012721 113.663608,54.7019301 L107.597945,51.4341611 C107.227739,51.2348191 106.957207,50.9963242 106.786342,50.7186693 C106.615478,50.4410143 106.530047,50.1384461 106.530047,49.8109557 L106.530047,45.2189928 L123.83,54.2747707 L123.83,56.8590847 Z"/>
  </g>
</svg>
