<?xml version="1.0" encoding="utf-8"?>
<!-- Generator: Adobe Illustrator 19.0.0, SVG Export Plug-In . SVG Version: 6.00 Build 0)  -->
<svg version="1.1" id="Layer_1" xmlns="http://www.w3.org/2000/svg" xmlns:xlink="http://www.w3.org/1999/xlink" x="0px" y="0px"
	 viewBox="0 0 118.098 136.612" enable-background="new 0 0 118.098 136.612" xml:space="preserve">
<linearGradient id="XMLID_5_" gradientUnits="userSpaceOnUse" x1="0" y1="68.8062" x2="118" y2="68.8062">
	<stop  offset="0" style="stop-color:#9648BF"/>
	<stop  offset="1" style="stop-color:#7E5CE8"/>
</linearGradient>
<polygon id="XMLID_1_" opacity="0.1" fill="url(#XMLID_5_)" points="88.67,17.576 58.95,0.5 0,34.654 0,102.959 29.156,119.735
	59.221,137.112 118,102.959 118,34.654 "/>
<linearGradient id="XMLID_16_" gradientUnits="userSpaceOnUse" x1="0.2891" y1="120.0357" x2="117.8008" y2="120.0357">
	<stop  offset="0" style="stop-color:#9648BF"/>
	<stop  offset="1" style="stop-color:#7E5CE8"/>
</linearGradient>
<polygon id="XMLID_68_" fill="url(#XMLID_16_)" fill-opacity="0.1" points="0.289,102.959 59.045,130.656 117.801,102.959
	59.342,137.112 "/>
<path id="XMLID_67_" opacity="0.6" fill="#FFFFFF" d="M59.727,33.601c-19.442,0-35.206,15.763-35.206,35.207
	c0,1.024,0.054,2.035,0.14,3.037c1.541,18.021,16.647,32.167,35.066,32.167c18.419,0,33.525-14.146,35.067-32.167
	c0.085-1.002,0.139-2.013,0.139-3.037C94.933,49.363,79.17,33.601,59.727,33.601z"/>
<linearGradient id="XMLID_18_" gradientUnits="userSpaceOnUse" x1="42.1182" y1="71.1914" x2="77.335" y2="71.1914">
	<stop  offset="0" style="stop-color:#9648BF"/>
	<stop  offset="1" style="stop-color:#7E5CE8"/>
</linearGradient>
<path id="XMLID_21_" fill="url(#XMLID_18_)" fill-opacity="0.5" d="M77.335,67.496c0-9.726-7.885-17.608-17.608-17.608
	c-9.724,0-17.608,7.883-17.608,17.608c0,6.867,3.937,12.813,9.673,15.716h-0.005c0,0,0.014,0.003,0.02,0.006
	c0.146,0.075,0.292,0.146,0.44,0.217c0.955,0.522,3.08,2.033,3.08,5.132v3.415c0,0.283,0.232,0.514,0.516,0.514h7.77
	c0.283,0,0.516-0.23,0.516-0.514v-3.415c0-3.103,2.136-4.613,3.088-5.135c0.146-0.068,0.289-0.141,0.433-0.214
	c0.006-0.003,0.02-0.006,0.02-0.006h-0.005C73.398,80.309,77.335,74.363,77.335,67.496z"/>
<linearGradient id="XMLID_65_" gradientUnits="userSpaceOnUse" x1="54.5401" y1="87.6363" x2="64.9131" y2="87.6363">
	<stop  offset="0" style="stop-color:#9648BF"/>
	<stop  offset="1" style="stop-color:#7E5CE8"/>
</linearGradient>
<path id="XMLID_20_" opacity="0.8" fill="url(#XMLID_65_)" enable-background="new    " d="M64.913,87.938
	c0,0.335-0.272,0.608-0.607,0.608h-9.158c-0.335,0-0.607-0.273-0.607-0.608v-0.605c0-0.333,0.272-0.606,0.607-0.606h9.158
	c0.335,0,0.607,0.273,0.607,0.606V87.938z"/>
<linearGradient id="XMLID_66_" gradientUnits="userSpaceOnUse" x1="54.5401" y1="90.5205" x2="64.9131" y2="90.5205">
	<stop  offset="0" style="stop-color:#9648BF"/>
	<stop  offset="1" style="stop-color:#7E5CE8"/>
</linearGradient>
<path id="XMLID_17_" opacity="0.8" fill="url(#XMLID_66_)" enable-background="new    " d="M64.913,90.823
	c0,0.333-0.272,0.606-0.607,0.606h-9.158c-0.335,0-0.607-0.273-0.607-0.606v-0.606c0-0.333,0.272-0.605,0.607-0.605h9.158
	c0.335,0,0.607,0.272,0.607,0.605V90.823z"/>
<path id="XMLID_6_" opacity="0.6" fill="#FFFFFF" d="M65.229,62.367c-1.607,0-3.089,0.731-4.068,2.007l0.115,0.087l-0.118-0.083
	l-1.431,1.907l-1.436-1.914c-0.979-1.272-2.461-2.004-4.066-2.004c-2.827,0-5.129,2.301-5.129,5.129
	c0,2.828,2.302,5.126,5.129,5.126c0.426,0,0.842-0.055,1.242-0.154l1.531,10.015c0.055,0.358,0.364,0.615,0.717,0.615
	c0.036,0,0.073-0.002,0.109-0.009c0.396-0.059,0.67-0.431,0.607-0.826l-1.584-10.367c0.549-0.328,1.042-0.756,1.448-1.284
	l1.431-1.906l1.425,1.899H61.15c0.381,0.499,0.841,0.911,1.353,1.233L61.02,82.27c-0.056,0.397,0.219,0.765,0.616,0.82
	c0.035,0.006,0.069,0.008,0.104,0.008c0.354,0,0.666-0.262,0.717-0.624l1.429-10.035c0.433,0.116,0.882,0.184,1.344,0.184
	c2.827,0,5.129-2.298,5.129-5.126C70.357,64.668,68.056,62.367,65.229,62.367z M57.139,69.734c-0.701,0.912-1.764,1.437-2.914,1.437
	c-2.027,0-3.677-1.648-3.677-3.675c0-2.027,1.649-3.677,3.677-3.677c1.151,0,2.213,0.524,2.91,1.43l1.685,2.247L57.139,69.734z
	 M65.229,71.171c-1.148,0-2.207-0.52-2.911-1.43h0.001l-1.685-2.245l1.679-2.238c0.702-0.915,1.765-1.439,2.916-1.439
	c2.027,0,3.677,1.649,3.677,3.677C68.905,69.523,67.256,71.171,65.229,71.171z"/>
</svg>
