<svg xmlns="http://www.w3.org/2000/svg" width="119" height="138" viewBox="0 0 119 138">
  <defs>
    <linearGradient id="a" x1="0%" y1="50%" y2="50%">
      <stop stop-color="#9648BF" offset="0%"/>
      <stop stop-color="#7E5CE8" offset="100%"/>
    </linearGradient>
    <linearGradient id="b" x1="0%" y1="49.999%" y2="49.999%">
      <stop stop-color="#9648BF" offset="0%"/>
      <stop stop-color="#7E5CE8" offset="100%"/>
    </linearGradient>
    <linearGradient id="c" x1=".001%" x2="99.999%" y1="50%" y2="50%">
      <stop stop-color="#9648BF" offset="0%"/>
      <stop stop-color="#7E5CE8" offset="100%"/>
    </linearGradient>
    <linearGradient id="d" x1="-.001%" x2="100.002%" y1="49.996%" y2="49.996%">
      <stop stop-color="#9648BF" offset="0%"/>
      <stop stop-color="#7E5CE8" offset="100%"/>
    </linearGradient>
    <linearGradient id="e" x1="0%" x2="100.004%" y1="49.995%" y2="49.995%">
      <stop stop-color="#9648BF" offset="0%"/>
      <stop stop-color="#7E5CE8" offset="100%"/>
    </linearGradient>
  </defs>
  <g fill="none">
    <polygon fill="url(#a)" fill-opacity=".1" points="89.033 17.576 59.495 .5 .727 34.654 .727 102.959 29.52 119.735 59.766 137.112 118.727 102.959 118.727 34.654"/>
    <polygon fill="url(#b)" fill-opacity=".1" points=".882 102.959 58.619 130.674 117.801 102.959 59.342 137.112"/>
    <path fill="url(#c)" d="M59.381,39.829 C77.702,39.829 92.73,53.903 94.263,71.828 C94.349,70.832 94.402,69.826 94.402,68.807 C94.402,49.465 78.723,33.786 59.381,33.786 C40.041,33.786 24.36,49.466 24.36,68.807 C24.36,69.826 24.414,70.831 24.499,71.828 C26.032,53.903 41.06,39.829 59.381,39.829 Z" opacity=".8"/>
    <path fill="#FFFFFF" d="M59.381,103.826 C77.702,103.826 92.73,89.754 94.263,71.828 C92.73,53.903 77.702,39.829 59.381,39.829 C41.06,39.829 26.032,53.903 24.5,71.828 C26.032,89.754 41.06,103.826 59.381,103.826 Z" opacity=".6"/>
    <circle cx="59.381" cy="68.808" r="17.51" fill="url(#d)" fill-opacity=".5"/>
    <circle cx="59.38" cy="68.808" r="8.755" fill="url(#e)"/>
    <circle cx="65.58" cy="62.652" r="4.377" fill="#FFFFFF" opacity=".6"/>
  </g>
</svg>
