<svg xmlns="http://www.w3.org/2000/svg" width="119" height="138" viewBox="0 0 119 138">
  <defs>
    <linearGradient id="a" x1="0%" y1="50%" y2="50%">
      <stop stop-color="#9648BF" offset="0%"/>
      <stop stop-color="#7E5CE8" offset="100%"/>
    </linearGradient>
    <linearGradient id="b" x1="0%" y1="49.999%" y2="49.999%">
      <stop stop-color="#9648BF" offset="0%"/>
      <stop stop-color="#7E5CE8" offset="100%"/>
    </linearGradient>
    <linearGradient id="c" x1="-.05%" x2=".15%" y1=".18%" y2=".18%">
      <stop stop-color="#9648BF" offset="0%"/>
      <stop stop-color="#7E5CE8" offset="100%"/>
    </linearGradient>
    <linearGradient id="d" x1="-.006%" x2="99.993%" y1="50.001%" y2="50.001%">
      <stop stop-color="#9648BF" offset="0%"/>
      <stop stop-color="#7E5CE8" offset="100%"/>
    </linearGradient>
  </defs>
  <g fill="none">
    <polygon fill="url(#a)" fill-opacity=".1" points="89.033 17.576 59.495 .5 .727 34.654 .727 102.959 29.52 119.735 59.766 137.112 118.727 102.959 118.727 34.654"/>
    <polygon fill="url(#b)" fill-opacity=".1" points=".882 102.959 58.619 130.674 117.801 102.959 59.342 137.112"/>
    <path fill="#FFFFFF" d="M59.386,33.753 C39.986,33.753 24.256,49.482 24.256,68.882 C24.256,69.904 24.31,70.914 24.396,71.913 C25.933,89.895 41.007,104.011 59.386,104.011 C77.765,104.011 92.839,89.896 94.377,71.913 C94.462,70.914 94.516,69.904 94.516,68.882 C94.516,49.482 78.787,33.753 59.386,33.753 Z" opacity=".6"/>
    <g transform="translate(42 53)">
      <polygon fill="url(#c)" points="20.812 3.903 20.812 3.904 20.813 3.901"/>
      <path fill="url(#d)" d="M26.764,0.968 C24.341,0.968 22.184,2.117 20.814,3.904 L20.539,4.268 C20.508,4.312 18.869,6.489 17.386,6.489 C15.915,6.489 14.293,4.346 14.239,4.273 L13.957,3.902 C12.588,2.117 10.431,0.968 8.008,0.968 C3.865,0.968 0.506,4.326 0.506,8.474 C0.506,8.474 0.502,8.708 0.539,9.132 C0.545,9.191 0.547,9.247 0.554,9.306 C0.852,12.222 2.929,22.363 17.387,32.797 C31.845,22.362 33.925,12.222 34.221,9.306 C34.228,9.247 34.232,9.191 34.237,9.132 C34.274,8.708 34.271,8.474 34.271,8.474 C34.269,4.326 30.907,0.968 26.764,0.968 Z"/>
    </g>
  </g>
</svg>
