<svg xmlns="http://www.w3.org/2000/svg" width="170" height="170" viewBox="0 0 170 170">
  <defs>
    <linearGradient id="a" x1="0%" y1="0%" y2="97.761%">
      <stop stop-color="#9648BF" offset="0%"/>
      <stop stop-color="#7E5CE8" offset="100%"/>
    </linearGradient>
  </defs>
  <g fill="none" fill-rule="evenodd" transform="translate(14 15)">
    <rect width="106.51" height="106.667" x="34.616" fill="url(#a)" opacity=".1" rx="5"/>
    <rect width="106.51" height="106.667" x="17.308" y="16" fill="url(#a)" opacity=".3" rx="5"/>
    <rect width="106.51" height="106.667" y="33.25" fill="url(#a)" rx="5"/>
    <path fill="#FFFFFF" d="M74.928456,33 L4.99431861,33 C2.23687459,33 -7.10542736e-15,35.2393313 -7.10542736e-15,38.0016864 L-7.10542736e-15,108.707705 C0.829861991,108.735826 1.6632757,108.75 2.5,108.75 C42.5406444,108.75 75,76.2906444 75,36.25 C75,35.1608801 74.9759846,34.0773692 74.9284546,32.9999681 Z" opacity=".05"/>
    <path fill="#FFFFFF" d="M71.6980522,87.75 L52.6722959,106.803824 L33.6465395,87.75 C28.392722,82.4884318 28.392722,73.9577443 33.6465395,68.6961761 C38.9003571,63.434608 47.4184783,63.434608 52.6722959,68.6961761 C57.9261134,63.434608 66.4442347,63.434608 71.6980522,68.6961761 C76.9518698,73.9577443 76.9518698,82.4884318 71.6980522,87.75 L71.6980522,87.75 L71.6980522,87.75 Z"/>
  </g>
</svg>
