<svg xmlns="http://www.w3.org/2000/svg" width="122" height="141" viewBox="0 0 122 141">
  <defs>
    <linearGradient id="a" x1="0%" y1="50%" y2="50%">
      <stop stop-color="#9648BF" offset="0%"/>
      <stop stop-color="#7E5CE8" offset="100%"/>
    </linearGradient>
    <linearGradient id="b" x1="0%" y1="50%" y2="50%">
      <stop stop-color="#9648BF" offset="0%"/>
      <stop stop-color="#7E5CE8" offset="100%"/>
    </linearGradient>
    <linearGradient id="c" x1=".006%" x2="100.005%" y1="50%" y2="50%">
      <stop stop-color="#9648BF" offset="0%"/>
      <stop stop-color="#7E5CE8" offset="100%"/>
    </linearGradient>
    <linearGradient id="d" x1=".005%" x2="100.001%" y1="49.999%" y2="49.999%">
      <stop stop-color="#9648BF" offset="0%"/>
      <stop stop-color="#7E5CE8" offset="100%"/>
    </linearGradient>
  </defs>
  <g fill="none">
    <polygon fill="url(#a)" fill-opacity=".1" points="90.867 18.062 60.488 .5 .047 35.626 .047 105.875 29.66 123.129 60.767 141 121.405 105.875 121.405 35.626"/>
    <polygon fill="url(#b)" fill-opacity=".1" points=".207 105.875 59.587 134.378 120.453 105.875 60.331 141"/>
    <path fill="#FFFFFF" d="M60.622,34.7 C40.579,34.7 24.33,50.949 24.33,70.992 C24.33,72.048 24.386,73.091 24.474,74.123 C26.063,92.699 41.635,107.283 60.622,107.283 C79.609,107.283 95.182,92.699 96.771,74.123 C96.86,73.091 96.914,72.048 96.914,70.992 C96.914,50.949 80.666,34.7 60.622,34.7 Z" opacity=".6"/>
    <g transform="translate(43 59)">
      <path fill="url(#c)" d="M16.758,23.374 C16.412,23.367 16.09,23.312 15.786,23.206 C15.479,23.1 15.204,22.958 14.959,22.781 C14.715,22.601 14.504,22.392 14.324,22.149 C14.144,21.91 14.003,21.657 13.904,21.393 L13.072,19.208 L30.909,19.233 C31.554,19.24 32.111,19.413 32.58,19.752 C33.051,20.091 33.396,20.558 33.626,21.154 L34.453,23.337 L16.758,23.374 Z"/>
      <path fill="url(#d)" d="M14.845,10.253 L0.512,17.736 L0.512,13.933 C0.512,13.661 0.584,13.414 0.726,13.189 C0.867,12.965 1.09,12.771 1.398,12.606 L6.421,9.88 C6.715,9.715 7.04,9.584 7.386,9.484 C7.734,9.382 8.097,9.286 8.475,9.192 C8.097,9.097 7.734,8.994 7.386,8.881 C7.039,8.769 6.715,8.63 6.421,8.465 L1.398,5.758 C1.09,5.592 0.867,5.396 0.726,5.165 C0.583,4.936 0.512,4.685 0.512,4.413 L0.512,0.61 L14.845,8.112 L14.845,10.253 Z"/>
    </g>
  </g>
</svg>
