<svg xmlns="http://www.w3.org/2000/svg" width="170" height="170" viewBox="0 0 170 170">
  <defs>
    <linearGradient id="a" x1="0%" y1="0%" y2="97.761%">
      <stop stop-color="#9648BF" offset="0%"/>
      <stop stop-color="#7E5CE8" offset="100%"/>
    </linearGradient>
  </defs>
  <g fill="none" fill-rule="evenodd" transform="translate(15 15)">
    <path fill="url(#a)" fill-opacity=".1" d="M70,140 C108.659932,140 140,108.659932 140,70 C140,31.3400675 108.659932,0 70,0 C31.3400675,0 0,31.3400675 0,70 C0,108.659932 31.3400675,140 70,140 Z M70,122 C98.718807,122 122,98.718807 122,70 C122,41.281193 98.718807,18 70,18 C41.281193,18 18,41.281193 18,70 C18,98.718807 41.281193,122 70,122 Z"/>
    <g transform="translate(0 30)">
      <path fill="url(#a)" fill-opacity=".5" d="M69.8896334,80.6779661 C103.940268,80.6779661 139.779267,43.7966102 139.779267,40.3389831 C139.779267,36.8813559 103.940268,0 69.8896334,0 C35.8389989,2.40684567e-15 -2.86409379e-12,36.8813559 -3.02691205e-12,40.3389831 C-3.18882562e-12,43.7966102 35.8389989,80.6779661 69.8896334,80.6779661 Z"/>
      <g transform="translate(35.84 6.02)">
        <ellipse cx="34.049" cy="34.318" fill="url(#a)" opacity=".5" rx="34.049" ry="34.318"/>
        <path fill="url(#a)" d="M4.82515096,51.9394756 C10.7748118,61.9418401 21.6361337,68.6364786 34.0487958,68.6364786 C52.8534264,68.6364786 68.0975915,53.2716795 68.0975915,34.3182393 C68.0975915,33.8698479 68.0890597,33.423465 68.0721508,32.9792465 L34.0213284,32.9792563 L4.82515096,51.9394756 Z" opacity=".5"/>
        <path fill="url(#a)" d="M58.8463574,57.8354352 C64.5826436,51.6930577 68.0975915,43.4193769 68.0975915,34.3182393 C68.0975915,15.3647991 52.8534264,0 34.0487958,0 C34.0325278,0 34.0162626,1.14990394e-05 34,3.44894939e-05 L34,32.9890778 L58.8463574,57.8354352 Z"/>
        <path fill="#FFFFFF" d="M19.6990917,3.18755509 C8.06506711,8.64471966 9.23705556e-14,20.5321775 9.23705556e-14,34.3182393 C9.23705556e-14,39.224797 1.02160114,43.8908588 2.86210659,48.1121238 C5.72144361,49.3146514 8.86268959,49.9792563 12.1591623,49.9792563 C25.4139963,49.9792563 36.1591623,39.2340903 36.1591623,25.9792563 C36.1591623,15.3583756 29.2601709,6.34884066 19.6990917,3.18755509 Z" opacity=".05"/>
      </g>
    </g>
  </g>
</svg>
