<svg xmlns="http://www.w3.org/2000/svg" width="261" height="219" viewBox="0 0 261 219">
  <g fill="#FFFFFF" fill-rule="evenodd">
    <path d="M186.21343 67.8673592L186.21343 33.7962963 127.756715 0 69.3 33.7962963 69.3 101.388889 127.756715 135.185185 186.21343 101.388889 186.21343 79.407558 168.854546 79.407558 168.854546 91.4285983 127.863557 115.127221 86.8725684 91.4285983 86.8725684 67.8673592 163.534289 67.8673592 186.21343 67.8673592zM29.9592 208.293333L29.9592 218.098765.8136 218.098765.8136 177.146667 29.4408 177.146667 29.4408 186.952099 12.0456 186.952099 12.0456 192.72 26.9064 192.72 26.9064 201.833284 12.0456 201.833284 12.0456 208.293333 29.9592 208.293333zM36.1008 218.098765L36.1008 177.146667 64.152 177.146667 64.152 186.952099 47.3328 186.952099 47.3328 193.758222 61.0416 193.758222 61.0416 202.871506 47.3328 202.871506 47.3328 218.098765 36.1008 218.098765zM69.1992 218.098765L69.1992 177.146667 97.2504 177.146667 97.2504 186.952099 80.4312 186.952099 80.4312 193.758222 94.14 193.758222 94.14 202.871506 80.4312 202.871506 80.4312 218.098765 69.1992 218.098765zM102.2976 218.098765L102.2976 177.146667 113.5296 177.146667 113.5296 218.098765 102.2976 218.098765zM119.2104 197.276642C119.2104 194.777206 119.651996 192.316259 120.5352 189.893728 121.418404 187.471198 122.714391 185.298643 124.4232 183.376 126.132009 181.453357 128.205588 179.896039 130.644 178.704 133.082412 177.511961 135.856784 176.915951 138.9672 176.915951 142.615218 176.915951 145.802386 177.733062 148.5288 179.367309 151.255214 181.001555 153.271193 183.164497 154.5768 185.856198L145.9944 191.970173C145.648798 190.970398 145.197603 190.143674 144.6408 189.489975 144.083997 188.836277 143.479203 188.317171 142.8264 187.932642 142.173597 187.548113 141.482404 187.278947 140.7528 187.125136 140.023196 186.971324 139.351203 186.89442 138.7368 186.89442 137.315993 186.89442 136.096805 187.211651 135.0792 187.846123 134.061595 188.480596 133.216803 189.30732 132.5448 190.326321 131.872797 191.345322 131.383202 192.498891 131.076 193.787062 130.768798 195.075233 130.6152 196.353771 130.6152 197.622716 130.6152 199.045472 130.797598 200.410528 131.1624 201.717926 131.527202 203.025323 132.064796 204.178892 132.7752 205.178667 133.485604 206.178441 134.349595 206.976326 135.3672 207.572346 136.384805 208.168365 137.546393 208.46637 138.852 208.46637 139.504803 208.46637 140.176797 208.379853 140.868 208.206815 141.559203 208.033777 142.221597 207.745385 142.8552 207.34163 143.488803 206.937875 144.064797 206.418769 144.5832 205.784296 145.101603 205.149824 145.514398 204.371165 145.8216 203.448296L154.98 208.927802C154.403997 210.427464 153.530406 211.773294 152.3592 212.965333 151.187994 214.157372 149.853607 215.157132 148.356 215.964642 146.858393 216.772152 145.264808 217.387389 143.5752 217.81037 141.885592 218.233352 140.234408 218.44484 138.6216 218.44484 135.779986 218.44484 133.168812 217.839216 130.788 216.627951 128.407188 215.416685 126.362409 213.811302 124.6536 211.811753 122.944791 209.812204 121.610405 207.543519 120.6504 205.00563 119.690395 202.46774 119.2104 199.891437 119.2104 197.276642zM160.0848 218.098765L160.0848 177.146667 171.3168 177.146667 171.3168 218.098765 160.0848 218.098765zM175.2696 218.098765L190.5336 177.146667 199.6344 177.146667 214.8408 218.098765 202.9752 218.098765 200.4984 210.081383 189.612 210.081383 187.1928 218.098765 175.2696 218.098765zM195.084 188.855506L191.2824 202.583111 198.7128 202.583111 195.084 188.855506zM249.7248 218.098765L249.7248 196.526815 242.8704 211.696395 236.88 211.696395 230.0256 196.526815 230.0256 218.098765 218.7936 218.098765 218.7936 177.146667 231.0624 177.146667 239.8752 196.411457 248.7456 177.146667 260.9568 177.146667 260.9568 218.098765 249.7248 218.098765z"/>
  </g>
</svg>
