<svg xmlns="http://www.w3.org/2000/svg" width="1440" height="1024" viewBox="0 0 1440 1024">
  <g fill="#FFFFFF" fill-rule="evenodd" transform="translate(-128 -78)">
    <polygon fill-opacity=".04" points="578.296 675.206 519.843 741.942 637.797 815.155"/>
    <polygon fill-opacity=".09" points="521.331 743.354 541.831 882.542 637.725 815.255"/>
    <polygon fill-opacity=".03" points="578.253 675.147 511.555 591.638 518.673 742.454"/>
    <polygon fill-opacity=".07" points="353.323 812.938 452.928 658.386 523.066 745.937"/>
    <polygon fill-opacity=".12" points="353.282 813 228.18 878.109 541.763 882.507"/>
    <polygon fill-opacity=".16" points="541.823 882.558 420.235 960.374 619.314 1020.9"/>
    <polygon fill-opacity=".05" points="228.34 878.187 340.752 1001.138 420.156 960.361"/>
    <polygon fill-opacity=".13" points="340.82 1001.203 438.886 1053.415 420.208 960.415"/>
    <polygon fill-opacity=".04" points="438.938 1053.399 619.333 1021.114 420.202 960.381"/>
    <polygon fill-opacity=".14" points="228.171 878.156 204.087 1022.302 340.744 1001.26"/>
    <polygon fill-opacity=".06" points="204.263 1022.389 390.784 1125.541 340.803 1001.315"/>
    <polygon fill-opacity=".07" points="228.108 878.124 121 747 204.071 1022.439"/>
    <polygon fill-opacity=".03" points="353.347 812.867 360.832 582.527 452.802 658.396"/>
    <polygon fill-opacity=".05" points="123.041 748.661 276.159 700.527 353.239 812.922"/>
    <polygon fill-opacity=".12" points="122.804 749.115 128.651 626.616 275.983 700.452"/>
    <polygon fill-opacity=".02" points="128.287 624.807 360.87 582.457 276.065 700.387"/>
    <polygon fill-opacity=".15" points="203.927 1022.295 0 912.51 121.785 749.078"/>
    <polygon fill-opacity=".05" points="203.859 1022.296 19.342 1101.784 75.519 953.353"/>
    <polygon fill-opacity=".11" points="452.964 658.353 511.418 591.57 521.531 743.238"/>
    <polygon fill-opacity=".08" points="360.888 582.489 414.912 431.771 452.91 658.4"/>
    <polygon fill-opacity=".05" points="128.659 626.22 199.566 434.633 360.868 582.414"/>
    <polygon fill-opacity=".08" points="414.971 431.795 611.575 459.303 511.511 591.431"/>
    <polygon fill-opacity=".02" points="611.619 459.361 578.326 675.135 511.649 591.502"/>
    <polygon fill-opacity=".03" points="414.95 431.783 598.489 269.417 611.59 459.253"/>
    <polygon fill-opacity=".07" points="732.4 508.136 598.523 269.493 611.649 459.291"/>
    <polygon fill-opacity=".02" points="732.397 508.127 768.92 736.749 578.429 675.1"/>
    <polygon fill-opacity=".02" points="206.699 430.795 370.642 253.525 414.932 431.749"/>
    <polygon fill-opacity=".01" points="370.367 254.073 598.475 269.416 449.477 118.035"/>
    <polygon fill-opacity=".02" points="598.525 269.429 700.001 224.001 732.512 508.168"/>
    <polygon fill-opacity=".08" points="769.019 736.77 915.116 395.629 732.469 508.167"/>
    <polyline fill-opacity=".04" points="700.045 224.005 836.707 105.058 915.068 395.564"/>
    <polygon fill-opacity=".1" points="637.923 815.074 768.874 736.803 578.397 675.183"/>
    <polygon fill-opacity=".04" points="619.502 1020.85 637.753 815.41 541.915 882.582"/>
    <polygon fill-opacity=".09" points="619.707 1020.961 823.608 834.224 637.898 815.312"/>
    <polygon fill-opacity=".06" points="768.925 736.824 823.657 834.073 981.112 791.979"/>
    <polygon fill-opacity=".01" points="981.043 791.918 915.19 395.696 769.407 736.582"/>
    <polygon fill-opacity=".05" points="1126.76 596.96 1045.706 401.229 915.212 395.599"/>
    <polygon fill-opacity=".01" points="836.779 104.995 1129.714 110.748 1045.727 401.085"/>
    <polygon fill-opacity=".03" points="823.675 834.204 986.385 926.654 981.075 792.07"/>
    <polygon fill-opacity=".02" points="624.941 1018.406 985.737 926.029 823.637 834.388"/>
    <polygon fill-opacity=".03" points="981.173 791.97 1126.934 597.024 1255.289 849.683"/>
    <polygon fill-opacity=".01" points="986.855 925.327 830.493 1056.015 625.85 1018.503"/>
    <polygon fill-opacity=".02" points="1235.984 379.764 1388.499 541.367 1127.004 596.876"/>
    <polygon fill-opacity=".02" points="1129.971 110.656 1236.016 379.615 1045.881 401.03"/>
    <polygon fill-opacity=".02" points="1255.327 849.65 1388.635 541.393 1486.659 781.393"/>
    <polygon fill-opacity=".03" points="1236.101 379.631 1379.022 287.86 1388.611 541.316"/>
    <polygon fill-opacity=".02" points="1130.043 110.849 1321.403 .296 1378.994 287.748"/>
  </g>
</svg>
