<svg xmlns="http://www.w3.org/2000/svg" width="1019" height="1524" viewBox="0 0 1019 1524">
  <g fill="#000000" fill-rule="evenodd" transform="rotate(167 685.483 950.212)" opacity=".2">
    <polygon fill-opacity=".04" points="1064.95 1243.413 957.308 1366.311 1174.524 1501.135"/>
    <polygon fill-opacity=".09" points="960.048 1368.91 997.8 1625.23 1174.392 1501.319"/>
    <polygon fill-opacity=".03" points="1064.872 1243.305 942.046 1089.521 955.153 1367.252"/>
    <polygon fill-opacity=".07" points="650.656 1497.052 834.081 1212.439 963.243 1373.667"/>
    <polygon fill-opacity=".12" points="650.58 1497.166 420.201 1617.067 997.673 1625.166"/>
    <polygon fill-opacity=".16" points="997.784 1625.258 773.876 1768.56 1140.488 1880.021"/>
    <polygon fill-opacity=".05" points="420.495 1617.209 627.506 1843.628 773.731 1768.535"/>
    <polygon fill-opacity=".13" points="627.631 1843.748 808.223 1939.898 773.828 1768.636"/>
    <polygon fill-opacity=".04" points="808.319 1939.869 1140.523 1880.414 773.816 1768.574"/>
    <polygon fill-opacity=".14" points="420.185 1617.153 375.833 1882.603 627.491 1843.853"/>
    <polygon fill-opacity=".06" points="376.156 1882.763 719.641 2072.721 627.599 1843.954"/>
    <polygon fill-opacity=".07" points="420.069 1617.093 222.825 1375.625 375.803 1882.855"/>
    <polygon fill-opacity=".03" points="650.7 1496.921 664.483 1072.743 833.849 1212.458"/>
    <polygon fill-opacity=".05" points="226.584 1378.683 508.556 1290.043 650.501 1497.022"/>
    <polygon fill-opacity=".12" points="226.147 1379.52 236.915 1153.934 508.231 1289.906"/>
    <polygon fill-opacity=".02" points="236.244 1150.603 664.553 1072.613 508.383 1289.785"/>
    <polygon fill-opacity=".15" points="375.538 1882.59 0 1680.417 224.271 1379.451"/>
    <polygon fill-opacity=".05" points="375.413 1882.592 35.619 2028.972 139.07 1755.631"/>
    <polygon fill-opacity=".11" points="834.149 1212.379 941.792 1089.395 960.416 1368.697"/>
    <polygon fill-opacity=".08" points="664.586 1072.673 764.074 795.12 834.048 1212.466"/>
    <polygon fill-opacity=".05" points="236.929 1153.204 367.508 800.391 664.55 1072.534"/>
    <polygon fill-opacity=".08" points="764.182 795.165 1126.235 845.822 941.964 1089.14"/>
    <polygon fill-opacity=".02" points="1126.316 845.929 1065.006 1243.283 942.218 1089.271"/>
    <polygon fill-opacity=".03" points="764.144 795.143 1102.138 496.141 1126.262 845.73"/>
    <polygon fill-opacity=".07" points="1348.739 935.748 1102.199 496.28 1126.372 845.799"/>
    <polygon fill-opacity=".02" points="1348.732 935.733 1415.991 1356.747 1065.196 1243.219"/>
    <polygon fill-opacity=".02" points="380.643 793.323 682.549 466.874 764.111 795.08"/>
    <polygon fill-opacity=".01" points="682.043 467.885 1102.11 496.138 827.727 217.365"/>
    <polygon fill-opacity=".02" points="1102.203 496.161 1289.075 412.506 1348.945 935.807"/>
    <polygon fill-opacity=".08" points="1416.174 1356.786 1685.216 728.563 1348.866 935.806"/>
    <polyline fill-opacity=".04" points="1289.156 412.513 1540.823 193.468 1685.127 728.444"/>
    <polygon fill-opacity=".1" points="1174.756 1500.985 1415.907 1356.848 1065.137 1243.372"/>
    <polygon fill-opacity=".04" points="1140.832 1879.928 1174.443 1501.603 997.955 1625.304"/>
    <polygon fill-opacity=".09" points="1141.211 1880.133 1516.701 1536.251 1174.71 1501.424"/>
    <polygon fill-opacity=".01" points="1806.623 1458.342 1685.352 728.686 1416.888 1356.44"/>
    <polygon fill-opacity=".01" points="1540.956 193.351 2080.405 203.945 1925.741 738.612"/>
    <polygon fill-opacity=".02" points="1150.85 1875.427 1815.268 1705.313 1516.755 1536.552"/>
    <polygon fill-opacity=".01" points="1817.326 1704.02 1529.38 1944.686 1152.523 1875.607"/>
  </g>
</svg>
