<svg xmlns="http://www.w3.org/2000/svg" width="170" height="170" viewBox="0 0 170 170">
  <defs>
    <linearGradient id="a" x1="0%" y1="0%" y2="97.761%">
      <stop stop-color="#9648BF" offset="0%"/>
      <stop stop-color="#7E5CE8" offset="100%"/>
    </linearGradient>
  </defs>
  <g fill="none" fill-rule="evenodd">
    <g transform="translate(29 20)">
      <polygon fill="url(#a)" stroke="url(#a)" stroke-width="7" points="56.292 0 112.583 32.5 112.583 97.5 56.292 130 0 97.5 0 32.5" stroke-linecap="round" stroke-linejoin="round"/>
      <path fill="#FFFFFF" d="M13.9285714,63.8342981 L36.3789783,52.0824802 L36.3789783,58.0415388 C36.3789783,58.466528 36.2681132,58.8591753 36.0463796,59.2194922 C35.8246461,59.5798092 35.4735733,59.8893076 34.9931507,60.1479967 L27.12165,64.3886291 C26.6412274,64.6473182 26.1330957,64.864429 25.5972397,65.0399681 C25.0613837,65.2155071 24.4978194,65.3771854 23.90653,65.5250077 C24.4978194,65.6728301 25.0613837,65.8252696 25.5972397,65.9823308 C26.1330957,66.1393921 26.6412274,66.3472641 27.12165,66.6059532 L34.9931507,70.8743022 C35.4735733,71.1329913 35.8246461,71.4378703 36.0463796,71.7889484 C36.2681132,72.1400265 36.3789783,72.5280543 36.3789783,72.9530436 L36.3789783,78.9121022 L13.9285714,67.1880008 L13.9285714,63.8342981 Z M53.0397054,83.8733649 C52.8364497,84.3722653 52.5731451,84.8157257 52.2497837,85.2037594 C51.9264223,85.5917931 51.5661108,85.9151496 51.1688382,86.1738387 C50.7715656,86.4325278 50.3465828,86.6265417 49.8938768,86.7558863 C49.4411709,86.8852308 48.9930911,86.9499022 48.5496241,86.9499022 L44.8910392,86.9499022 L60.6340406,45.6245236 C61.0035965,44.6821562 61.5671607,43.961533 62.3247502,43.4626326 C63.0823398,42.9637322 63.9600218,42.7142857 64.9578226,42.7142857 L68.6164075,42.7142857 L53.0397054,83.8733649 Z M99.3571429,67.1880008 L76.906736,78.9121022 L76.906736,72.9530436 C76.906736,72.5280543 77.0176011,72.1400265 77.2393346,71.7889484 C77.4610682,71.4378703 77.812141,71.1329913 78.2925636,70.8743022 L86.1640643,66.6059532 C86.6260091,66.3472641 87.1295214,66.1393921 87.6746163,65.9823308 C88.2197112,65.8252696 88.7878949,65.6728301 89.3791843,65.5250077 C88.7878949,65.3771854 88.2197112,65.2155071 87.6746163,65.0399681 C87.1295214,64.864429 86.6260091,64.6473182 86.1640643,64.3886291 L78.2925636,60.1479967 C77.812141,59.8893076 77.4610682,59.5798092 77.2393346,59.2194922 C77.0176011,58.8591753 76.906736,58.466528 76.906736,58.0415388 L76.906736,52.0824802 L99.3571429,63.8342981 L99.3571429,67.1880008 Z"/>
    </g>
    <circle cx="44.5" cy="61.5" r="54.5" fill="#FFFFFF" opacity=".05"/>
  </g>
</svg>
