<svg xmlns="http://www.w3.org/2000/svg" width="170" height="170" viewBox="0 0 170 170">
  <defs>
    <linearGradient id="a" x1="0%" y1="0%" y2="97.761%">
      <stop stop-color="#9648BF" offset="0%"/>
      <stop stop-color="#7E5CE8" offset="100%"/>
    </linearGradient>
  </defs>
  <g fill="none" fill-rule="evenodd" transform="translate(18 15)">
    <g transform="translate(30.119 28.38)">
      <path fill="url(#a)" d="M71.4471802,34.4725781 C71.4471802,55.788856 52.3095426,70.2044752 52.3095426,87.0261104 L19.1376375,87.0261104 C19.1376375,70.2044752 0,55.7837368 0,34.4725781 C0,12.2399665 17.8515883,0 35.7031766,0 C53.5751784,0 71.4471802,12.255324 71.4471802,34.4725781 Z" opacity=".8"/>
      <path fill="#FFFFFF" fill-opacity=".1" d="M40.0677706,0.243477215 C47.6723323,7.21800606 52.4382961,17.2269118 52.4382961,28.3467202 C52.4382961,49.4213796 35.3193405,66.5057667 14.2020385,66.5057667 C13.4150257,66.5057667 12.6335665,66.4820373 11.8583399,66.4352564 C6.44790784,56.8911867 0,46.8426525 0,34.4725781 C0,12.2399665 17.8515883,0 35.7031766,0 C37.1612764,0 38.6193762,0.0815742164 40.0677706,0.243477215 Z"/>
      <rect width="38.765" height="25.564" x="16.281" y="85.212" fill="url(#a)" rx="5"/>
    </g>
    <ellipse cx="66.627" cy="66.832" fill="url(#a)" fill-opacity=".1" rx="66.627" ry="66.832"/>
  </g>
</svg>
