<svg xmlns="http://www.w3.org/2000/svg" width="170" height="170" viewBox="0 0 170 170"><defs><linearGradient id="a" x1="0%" y1="0%" y2="97.761%"><stop stop-color="#9648BF" offset="0%"/><stop stop-color="#7E5CE8" offset="100%"/></linearGradient></defs><g fill="none" fill-rule="evenodd" transform="translate(18 15)"><g transform="translate(30.119 28.38)"><path fill="url(#a)" d="M71.447 34.473c0 21.316-19.137 35.731-19.137 52.553H19.138C19.138 70.204 0 55.784 0 34.473 0 12.24 17.852 0 35.703 0c17.872 0 35.744 12.255 35.744 34.473z" opacity=".8"/><path fill="#FFF" fill-opacity=".1" d="M40.068.243c7.604 6.975 12.37 16.984 12.37 28.104 0 21.074-17.119 38.159-38.236 38.159-.787 0-1.568-.024-2.344-.07C6.448 56.89 0 46.842 0 34.472 0 12.24 17.852 0 35.703 0c1.458 0 2.916.082 4.365.243z"/><rect width="38.765" height="25.564" x="16.281" y="85.212" fill="url(#a)" rx="5"/></g><ellipse cx="66.627" cy="66.832" fill="url(#a)" fill-opacity=".1" rx="66.627" ry="66.832"/></g></svg>