<svg xmlns="http://www.w3.org/2000/svg" width="170" height="170" viewBox="0 0 170 170"><defs><linearGradient id="a" x1="0%" y1="0%" y2="97.761%"><stop stop-color="#9648BF" offset="0%"/><stop stop-color="#7E5CE8" offset="100%"/></linearGradient></defs><g fill="none" fill-rule="evenodd"><path fill="url(#a)" stroke="url(#a)" stroke-width="7" stroke-linecap="round" stroke-linejoin="round" d="M56.292 0l56.291 32.5v65L56.292 130 0 97.5v-65z" transform="translate(29 20)"/><path fill="#FFF" d="M42.929 83.834l22.45-11.752v5.96c0 .425-.11.817-.333 1.177-.221.36-.572.67-1.053.929l-7.871 4.24c-.48.26-.989.476-1.525.652-.536.176-1.1.337-1.69.485.59.148 1.154.3 1.69.457a7.88 7.88 0 0 1 1.525.624l7.871 4.268c.48.259.832.564 1.053.915.222.351.333.74.333 1.164v5.96l-22.45-11.725v-3.354zm39.11 20.04a5.02 5.02 0 0 1-.79 1.33 4.855 4.855 0 0 1-1.08.97 4.876 4.876 0 0 1-2.62.776h-3.658l15.743-41.325c.37-.943.933-1.663 1.69-2.162.758-.5 1.636-.749 2.634-.749h3.658l-15.576 41.16zm46.318-16.686l-22.45 11.724v-5.959c0-.425.11-.813.332-1.164.222-.351.573-.656 1.054-.915l7.871-4.268a7.105 7.105 0 0 1 1.51-.624 49.68 49.68 0 0 1 1.705-.457 26.64 26.64 0 0 1-1.704-.485 8.271 8.271 0 0 1-1.51-.651l-7.872-4.241c-.48-.259-.832-.568-1.054-.929a2.206 2.206 0 0 1-.332-1.177v-5.96l22.45 11.752v3.354z"/><circle cx="44.5" cy="61.5" r="54.5" fill="#FFF" opacity=".05"/></g></svg>