<svg xmlns="http://www.w3.org/2000/svg" width="170" height="170" viewBox="0 0 170 170"><defs><linearGradient id="a" x1="0%" y1="0%" y2="97.761%"><stop stop-color="#9648BF" offset="0%"/><stop stop-color="#7E5CE8" offset="100%"/></linearGradient></defs><g fill="none" fill-rule="evenodd"><path fill="url(#a)" fill-opacity=".1" d="M70 140c38.66 0 70-31.34 70-70S108.66 0 70 0 0 31.34 0 70s31.34 70 70 70zm0-18c28.719 0 52-23.281 52-52S98.719 18 70 18 18 41.281 18 70s23.281 52 52 52z" transform="translate(15 15)"/><path fill="url(#a)" fill-opacity=".5" d="M69.89 80.678c34.05 0 69.89-36.881 69.89-40.339C139.78 36.881 103.94 0 69.89 0 35.839 0 0 36.881 0 40.339c0 3.458 35.839 40.339 69.89 40.339z" transform="translate(15 45)"/><g transform="translate(50.84 51.02)"><ellipse cx="34.049" cy="34.318" fill="url(#a)" opacity=".5" rx="34.049" ry="34.318"/><path fill="url(#a)" d="M4.825 51.94c5.95 10.002 16.811 16.696 29.224 16.696 18.804 0 34.049-15.364 34.049-34.318 0-.448-.009-.895-.026-1.339h-34.05L4.824 51.94z" opacity=".5"/><path fill="url(#a)" d="M58.846 57.835a34.345 34.345 0 0 0 9.252-23.517C68.098 15.365 52.853 0 34.048 0H34v32.99l24.846 24.845z"/><path fill="#FFF" d="M19.7 3.188C8.064 8.645 0 20.532 0 34.318c0 4.907 1.022 9.573 2.862 13.794 2.86 1.203 6 1.867 9.297 1.867 13.255 0 24-10.745 24-24 0-10.62-6.899-19.63-16.46-22.791z" opacity=".05"/></g></g></svg>