<svg xmlns="http://www.w3.org/2000/svg" width="170" height="170" viewBox="0 0 170 170"><defs><linearGradient id="a" x1="0%" y1="0%" y2="97.761%"><stop stop-color="#9648BF" offset="0%"/><stop stop-color="#7E5CE8" offset="100%"/></linearGradient></defs><g fill="none" fill-rule="evenodd"><g transform="translate(15 15)"><rect width="140" height="140" fill="url(#a)" opacity=".492" rx="5"/><g transform="translate(25.417 25.278)"><rect width="89.25" height="89.25" fill="url(#a)" opacity=".498" rx="5"/><path fill="#FFF" d="M63.408 0H5.006A5.005 5.005 0 0 0 0 5.006V68.9c1.158.067 2.325.1 3.5.1C36.913 69 64 41.913 64 8.5c0-2.885-.202-5.723-.592-8.5z" opacity=".05"/><g transform="translate(21 24)"><path stroke="url(#a)" stroke-width="4" stroke-linecap="round" stroke-linejoin="round" d="M23.484 20.432L11.742 40.864l11.742-20.432H0h23.484L11.742 0l11.742 20.432L35.226 0 23.484 20.432h23.484-23.484l11.742 20.432z"/><ellipse cx="23.935" cy="20.417" fill="url(#a)" rx="14.903" ry="14.972"/></g></g></g><circle cx="85.5" cy="84.5" r="10.5" fill="#000" opacity=".05"/></g></svg>