<svg xmlns="http://www.w3.org/2000/svg" width="170" height="170" viewBox="0 0 170 170"><defs><linearGradient id="a" x1="0%" y1="0%" y2="97.761%"><stop stop-color="#9648BF" offset="0%"/><stop stop-color="#7E5CE8" offset="100%"/></linearGradient></defs><g fill="none" fill-rule="evenodd" transform="translate(14 15)"><rect width="106.51" height="106.667" x="34.616" fill="url(#a)" opacity=".1" rx="5"/><rect width="106.51" height="106.667" x="17.308" y="16" fill="url(#a)" opacity=".3" rx="5"/><rect width="106.51" height="106.667" y="33.25" fill="url(#a)" rx="5"/><path fill="#FFF" d="M74.928 33H4.994A4.999 4.999 0 0 0 0 38.002v70.706c.83.028 1.663.042 2.5.042 40.04 0 72.5-32.46 72.5-72.5 0-1.09-.024-2.173-.072-3.25z" opacity=".05"/><path fill="#FFF" d="M71.698 87.75l-19.026 19.054L33.647 87.75c-5.254-5.262-5.254-13.792 0-19.054 5.253-5.261 13.771-5.261 19.025 0 5.254-5.261 13.772-5.261 19.026 0 5.254 5.262 5.254 13.792 0 19.054z"/></g></svg>