<svg xmlns="http://www.w3.org/2000/svg" width="261" height="219" viewBox="0 0 261 219"><path d="M186.213 67.867v-34.07L127.757 0 69.3 33.796v67.593l58.457 33.796 58.456-33.796V79.408h-17.358v12.02l-40.991 23.7-40.991-23.7v-23.56h99.341zM29.96 208.293v9.806H.814v-40.952H29.44v9.805H12.046v5.768h14.86v9.113h-14.86v6.46h17.913zm6.142 9.806v-40.952h28.051v9.805h-16.82v6.806h13.71v9.114h-13.71v15.227H36.102zm33.098 0v-40.952h28.05v9.805H80.431v6.806H94.14v9.114H80.431v15.227H69.2zm33.099 0v-40.952h11.232v40.952h-11.232zm16.912-20.822c0-2.5.442-4.96 1.325-7.383a20.074 20.074 0 0 1 3.888-6.518c1.709-1.923 3.783-3.48 6.221-4.672 2.438-1.192 5.213-1.788 8.323-1.788 3.648 0 6.835.817 9.562 2.451 2.726 1.635 4.742 3.797 6.048 6.49l-8.583 6.113c-.345-1-.796-1.826-1.353-2.48-.557-.654-1.162-1.173-1.815-1.557a6.842 6.842 0 0 0-2.073-.808 9.826 9.826 0 0 0-2.016-.23c-1.421 0-2.64.317-3.658.951a8.211 8.211 0 0 0-2.534 2.48c-.672 1.02-1.162 2.173-1.469 3.461a16.489 16.489 0 0 0-.46 3.836c0 1.422.182 2.788.546 4.095.365 1.307.903 2.46 1.613 3.46a8.31 8.31 0 0 0 2.592 2.394c1.018.596 2.18.894 3.485.894a8.24 8.24 0 0 0 2.016-.26 6.72 6.72 0 0 0 1.987-.864 7.301 7.301 0 0 0 1.728-1.558c.519-.634.931-1.413 1.239-2.336l9.158 5.48a11.708 11.708 0 0 1-2.62 4.037 16.66 16.66 0 0 1-4.004 3 20.54 20.54 0 0 1-4.78 1.845c-1.69.423-3.342.635-4.954.635-2.842 0-5.453-.606-7.834-1.817a19.784 19.784 0 0 1-6.134-4.816c-1.71-2-3.044-4.268-4.004-6.806-.96-2.538-1.44-5.115-1.44-7.73zm40.875 20.822v-40.952h11.232v40.952h-11.232zm15.185 0l15.264-40.952h9.1l15.207 40.952h-11.866l-2.477-8.018h-10.886l-2.42 8.018H175.27zm19.814-29.243l-3.802 13.727h7.43l-3.628-13.727zm54.64 29.243v-21.572l-6.854 15.17h-5.99l-6.854-15.17v21.572h-11.232v-40.952h12.268l8.813 19.264 8.87-19.264h12.212v40.952h-11.232z" fill="#FFF" fill-rule="evenodd"/></svg>