<svg xmlns="http://www.w3.org/2000/svg" width="1019" height="1524" viewBox="0 0 1019 1524"><g fill-rule="evenodd" opacity=".2"><path fill-opacity=".04" d="M249.786 749.887l77.237-143.962-241.978-82.506z"/><path fill-opacity=".09" d="M323.769 604.009L229.325 362.75 85.133 523.21z"/><path fill-opacity=".03" d="M249.886 749.975l154.272 122.213-75.247-267.665z"/><path fill-opacity=".07" d="M596.405 409.553l-114.7 318.58-162.12-128.04z"/><path fill-opacity=".12" d="M596.454 409.425l197.502-168.652-564.493 122.011z"/><path fill-opacity=".16" d="M229.334 362.72l185.933-189.998-382.289-26.134z"/><path fill-opacity=".05" d="M793.638 240.7L540.999 66.653 415.414 172.714z"/><path fill-opacity=".13" d="M540.85 66.563l-197.592-53.06 72.039 159.134z"/><path fill-opacity=".04" d="M343.17 13.552L32.857 146.212l382.467 26.483z"/><path fill-opacity=".14" d="M793.952 240.686L777.454-27.938 540.964 66.43z"/><path fill-opacity=".06" d="M777.104-28.021L399.69-135.843 540.835 66.355z"/><path fill-opacity=".07" d="M794.079 240.718l246.507 190.909L777.426-28.19z"/><path fill-opacity=".03" d="M596.392 409.69l81.99 416.407-196.455-98.035z"/><path fill-opacity=".05" d="M1036.235 429.493L781.43 579.29 596.563 409.547z"/><path fill-opacity=".12" d="M1036.473 428.579l40.254 222.227-294.95-71.455z"/><path fill-opacity=".02" d="M1078.13 653.9L678.342 826.24l103.315-246.737z"/><path fill-opacity=".15" d="M777.745-27.992l411.392 112.514-150.82 343.702z"/><path fill-opacity=".05" d="M777.866-28.022l298.157-219.065-39.311 289.607z"/><path fill-opacity=".11" d="M481.653 728.207l-77.22 144.046L323.459 604.3z"/><path fill-opacity=".08" d="M678.297 826.189l-34.503 292.82-162.063-390.91z"/><path fill-opacity=".05" d="M1076.877 651.52l-47.866 373.144-350.648-198.348z"/><path fill-opacity=".08" d="M643.679 1118.989l-364.169 32.085L404.324 872.54z"/><path fill-opacity=".02" d="M279.407 1150.988l-29.646-400.962L404.047 872.47z"/><path fill-opacity=".03" d="M643.721 1119.001l-262.07 367.371-102.147-335.202z"/><path fill-opacity=".07" d="M42.48 1113.505l339.08 372.745-102.178-335.123z"/><path fill-opacity=".02" d="M42.49 1113.518l-160.243-395.093 367.343 31.707zm975.312-79.012L797.07 1420.502l-153.302-301.447z"/><path fill-opacity=".01" d="M797.335 1419.403l-415.656 66.966 330.06 209.905z"/><path fill-opacity=".02" d="M381.583 1486.367l-163.264 123.548-176.053-496.42z"/><path fill-opacity=".08" d="M-117.94 718.428l-120.827 672.643 281.11-277.594z"/><path fill-opacity=".04" d="M218.238 1609.927L22.296 1879.97l-260.95-488.803"/><path fill-opacity=".1" d="M84.853 523.618l-202.546 194.69 367.306 31.661z"/><path fill-opacity=".04" d="M32.664 146.756l52.355 376.19 144.138-160.233z"/><path fill-opacity=".09" d="M32.249 146.641l-288.51 419.536 341.06-42.997z"/><path fill-opacity=".01" d="M-521.227 707.307l282.3 683.675 120.37-672.056zM22.192 1880.114l-528.006 111.027 30.426-555.755z"/><path fill-opacity=".02" d="M23.915 153.395l-609.121 315.216 328.825 97.284z"/><path fill-opacity=".01" d="M-586.92 470.333l226.427-299.271 382.738-17.466z"/></g></svg>