<svg xmlns="http://www.w3.org/2000/svg" width="1440" height="1024" viewBox="0 0 1440 1024"><g fill="#FFF" fill-rule="evenodd"><path fill-opacity=".04" d="M450.296 597.206l-59.566 67.27 119.067 72.679z"/><path fill-opacity=".09" d="M390.646 664.485l23.185 140.057 95.894-67.287z"/><path fill-opacity=".03" d="M450.253 597.147l-66.698-83.509 7.118 150.816z"/><path fill-opacity=".07" d="M225.323 734.938l99.605-154.552 65.657 84.096z"/><path fill-opacity=".12" d="M225.282 735L100.18 800.109l313.583 4.398z"/><path fill-opacity=".16" d="M413.823 804.558l-121.588 77.816L491.314 942.9z"/><path fill-opacity=".05" d="M100.34 800.187l112.412 122.951 79.404-40.777z"/><path fill-opacity=".13" d="M212.82 923.203l98.066 52.212-18.678-93z"/><path fill-opacity=".04" d="M310.938 975.399l180.395-32.285-199.131-60.733z"/><path fill-opacity=".14" d="M100.171 800.156L76.087 944.302l136.657-21.042z"/><path fill-opacity=".06" d="M76.263 944.389l186.521 103.152-49.981-124.226z"/><path fill-opacity=".07" d="M100.108 800.124L-7 669l83.071 275.439z"/><path fill-opacity=".03" d="M225.347 734.867l7.485-230.34 91.97 75.869z"/><path fill-opacity=".05" d="M-4.959 670.661l153.118-48.134 77.08 112.395z"/><path fill-opacity=".12" d="M-5.196 671.115L.651 548.616l147.332 73.836z"/><path fill-opacity=".02" d="M.287 546.807l232.583-42.35-84.805 117.93z"/><path fill-opacity=".15" d="M75.927 944.295L-128 834.51-6.215 671.078z"/><path fill-opacity=".05" d="M75.859 944.296l-184.517 79.488 56.177-148.431z"/><path fill-opacity=".11" d="M324.964 580.353l58.454-66.783 7.196 150.879z"/><path fill-opacity=".08" d="M232.888 504.489l54.024-150.718L324.91 580.4z"/><path fill-opacity=".05" d="M.659 548.22l70.907-191.587 161.302 147.781z"/><path fill-opacity=".08" d="M286.971 353.795l196.604 27.508-100.064 132.128z"/><path fill-opacity=".02" d="M483.619 381.361l-33.293 215.774-66.677-83.633z"/><path fill-opacity=".03" d="M286.95 353.783l183.539-162.366 13.101 189.836z"/><path fill-opacity=".07" d="M604.4 430.136L470.523 191.493l13.126 189.798z"/><path fill-opacity=".02" d="M604.397 430.127l36.523 228.622L450.429 597.1zM78.699 352.795l163.943-177.27 44.29 178.224z"/><path fill-opacity=".01" d="M242.367 176.073l228.108 15.343L321.477 40.035z"/><path fill-opacity=".02" d="M470.525 191.429l101.476-45.428 32.511 284.167z"/><path fill-opacity=".08" d="M641.019 658.77l146.097-341.141-182.647 112.538z"/><path fill-opacity=".04" d="M572.045 146.005L708.707 27.058l78.361 290.506"/><path fill-opacity=".1" d="M509.923 737.074l130.951-78.271-190.477-61.62z"/><path fill-opacity=".04" d="M491.502 942.85l18.251-205.44-95.838 67.172z"/><path fill-opacity=".09" d="M491.707 942.961l203.901-186.737-185.71-18.912z"/><path fill-opacity=".06" d="M640.925 658.824l54.732 97.249 157.455-42.094z"/><path fill-opacity=".01" d="M853.043 713.918L787.19 317.696 641.407 658.582z"/><path fill-opacity=".05" d="M998.76 518.96l-81.054-195.731-130.494-5.63z"/><path fill-opacity=".01" d="M708.779 26.995l292.935 5.753-83.987 290.337z"/><path fill-opacity=".03" d="M695.675 756.204l162.71 92.45-5.31-134.584z"/><path fill-opacity=".02" d="M496.941 940.406l360.796-92.377-162.1-91.641z"/><path fill-opacity=".03" d="M853.173 713.97l145.761-194.946 128.355 252.659z"/><path fill-opacity=".01" d="M858.855 847.327L702.493 978.015 497.85 940.503z"/><path fill-opacity=".02" d="M1107.984 301.764l152.515 161.603-261.495 55.509zM1001.971 32.656l106.045 268.959-190.135 21.415zm125.356 738.994l133.308-308.257 98.024 240z"/><path fill-opacity=".03" d="M1108.101 301.631l142.921-91.771 9.589 253.456z"/><path fill-opacity=".02" d="M1002.043 32.849l191.36-110.553 57.591 287.452z"/></g></svg>